SplineFontDB: 3.0
FontName: Sushi-Sans
FullName: Sushi Sans
FamilyName: Sushi Sans
Weight: Regular
Copyright: Copyright (c) 2020, Aryan Jha
Version: 001.000
ItalicAngle: 0
UnderlinePosition: -101
UnderlineWidth: 50
Ascent: 825
Descent: 199
InvalidEm: 0
sfntRevision: 0x00010000
LayerCount: 2
Layer: 0 0 "Back" 1
Layer: 1 0 "Fore" 0
XUID: [1021 599 1106052279 21719]
StyleMap: 0x0000
FSType: 0
OS2Version: 4
OS2_WeightWidthSlopeOnly: 0
OS2_UseTypoMetrics: 1
CreationTime: 1577187939
ModificationTime: 1600891487
PfmFamily: 33
TTFWeight: 600
TTFWidth: 5
LineGap: 91
VLineGap: 0
Panose: 2 0 5 3 0 0 0 0 0 0
OS2TypoAscent: 825
OS2TypoAOffset: 0
OS2TypoDescent: -199
OS2TypoDOffset: 0
OS2TypoLinegap: 91
OS2WinAscent: 875
OS2WinAOffset: 0
OS2WinDescent: 276
OS2WinDOffset: 0
HheadAscent: 875
HheadAOffset: 0
HheadDescent: -276
HheadDOffset: 0
OS2SubXSize: 665
OS2SubYSize: 716
OS2SubXOff: 0
OS2SubYOff: 143
OS2SupXSize: 665
OS2SupYSize: 716
OS2SupXOff: 0
OS2SupYOff: 491
OS2StrikeYSize: 51
OS2StrikeYPos: 265
OS2CapHeight: 783
OS2XHeight: 580
OS2Vendor: 'PfEd'
OS2CodePages: 00000001.00000000
OS2UnicodeRanges: 00000003.00000000.00000000.00000000
Lookup: 258 0 0 "'kern' Horizontal Kerning in Latin lookup 0" { "'kern' Horizontal Kerning in Latin lookup 0 subtable" [153,15,0] } ['kern' ('DFLT' <'dflt' > 'latn' <'dflt' > ) ]
MarkAttachClasses: 1
DEI: 91125
LangName: 1033
Encoding: UnicodeBmp
UnicodeInterp: none
NameList: AGL For New Fonts
DisplaySize: -48
AntiAlias: 1
FitToEm: 0
WinInfo: 48 16 6
BeginPrivate: 7
BlueValues 21 [0 2 580 596 778 784]
OtherBlues 11 [-277 -270]
BlueShift 1 9
StdHW 5 [105]
StdVW 5 [461]
StemSnapH 9 [105 108]
StemSnapV 5 [461]
EndPrivate
TeXData: 1 0 0 239616 119808 79872 592128 1048576 79872 783286 444596 497025 792723 393216 433062 380633 303038 157286 324010 404750 52429 2506097 1059062 262144
BeginChars: 65537 257

StartChar: .notdef
Encoding: 65536 -1 0
Width: 512
Flags: MW
HStem: 0 51<102 410 102 461> 499 51<102 410 102 102>
VStem: 51 51<51 51 51 499> 410 51<51 499 499 499>
LayerCount: 2
Fore
SplineSet
51 0 m 1
 51 550 l 1
 461 550 l 1
 461 0 l 1
 51 0 l 1
102 51 m 1
 410 51 l 1
 410 499 l 1
 102 499 l 1
 102 51 l 1
EndSplineSet
EndChar

StartChar: exclam
Encoding: 33 33 34
Width: 190
Flags: HW
LayerCount: 2
Fore
SplineSet
43.830078125 52.564453125 m 0
 43.830078125 81.65234375 67.4111328125 105.233398438 96.5 105.233398438 c 0
 125.587890625 105.233398438 149.168945312 81.65234375 149.168945312 52.564453125 c 0
 149.168945312 32.29296875 137.716796875 14.697265625 120.930664062 5.8916015625 c 0
 119.625976562 5.20703125 118.288085938 4.5751953125 116.921875 4 c 0
 116.592773438 3.861328125 116.262695312 3.7265625 115.930664062 3.5947265625 c 0
 109.918945312 1.20703125 103.362304688 -0.10546875 96.5 -0.10546875 c 0
 67.4111328125 -0.10546875 43.830078125 23.4755859375 43.830078125 52.564453125 c 0
49.830078125 200.88671875 m 1
 34 780.149414062 l 1
 73.685546875 780.149414062 l 0
 156.622070312 780.149414062 l 1
 141.163085938 200.88671875 l 1
 49.830078125 200.88671875 l 1
EndSplineSet
EndChar

StartChar: numbersign
Encoding: 35 35 36
Width: 815
Flags: HW
LayerCount: 2
Fore
SplineSet
755.04296875 473.655273438 m 5
 782.34375 575.5390625 l 5
 627.123046875 575.10546875 l 5
 683.040039062 781.481445312 l 5
 577.563476562 781.481445312 l 5
 521.56640625 574.809570312 l 5
 361.737304688 574.364257812 l 5
 417.85546875 781.481445312 l 5
 312.377929688 781.481445312 l 5
 256.180664062 574.068359375 l 5
 100.935546875 573.634765625 l 5
 73.6357421875 471.751953125 l 5
 228.576171875 472.185546875 l 5
 184.20703125 308.4296875 l 5
 28.7919921875 307.995117188 l 5
 1.4921875 206.112304688 l 5
 156.602539062 206.545898438 l 5
 100.795898438 0.576171875 l 5
 206.2734375 0.576171875 l 5
 262.159179688 206.840820312 l 5
 421.98828125 207.287109375 l 5
 365.98046875 0.576171875 l 5
 471.458007812 0.576171875 l 5
 527.544921875 207.581054688 l 5
 682.900390625 208.015625 l 5
 710.200195312 309.8984375 l 5
 555.150390625 309.46484375 l 5
 599.518554688 473.220703125 l 5
 755.04296875 473.655273438 l 5
493.961914062 472.92578125 m 5
 449.592773438 309.170898438 l 5
 289.764648438 308.724609375 l 5
 334.1328125 472.479492188 l 5
 493.961914062 472.92578125 l 5
EndSplineSet
EndChar

StartChar: dollar
Encoding: 36 36 37
Width: 637
Flags: HW
LayerCount: 2
Fore
SplineSet
594.169921875 617.838867188 m 1
 474.5078125 585.5 l 2
 469.013671875 605.1875 452.890625 635.110351562 422.512695312 659.3046875 c 0
 395.469726562 680.842773438 357.129882812 697.842773438 304.935546875 699.043945312 c 0
 302.978515625 699.087890625 301.001953125 699.111328125 299.005859375 699.111328125 c 0
 183.96484375 699.111328125 153.627929688 628.16796875 152.837890625 592.6953125 c 0
 149.521484375 547.008789062 170.416015625 519.61328125 252.163085938 502.094726562 c 0
 265.98046875 499.133789062 281.53515625 496.455078125 299.005859375 494.016601562 c 0
 322.364257812 490.758789062 348.05859375 486.12109375 374.311523438 479.41796875 c 0
 483.865234375 451.444335938 603.15625 387.490234375 603.15625 237.549804688 c 0
 606.778320312 158.393554688 551.015625 0.0771484375 299.005859375 0.0771484375 c 0
 280.559570312 0.0771484375 263.130859375 1.1103515625 246.669921875 3.0498046875 c 2
 243.708984375 -8 l 0
 220.44921875 -94.8115234375 l 1
 100.8125 -62.75 l 1
 128.19140625 39.4228515625 l 1
 16.8974609375 100.689453125 -15.0595703125 218.985351562 -14.759765625 287.84765625 c 1
 109.109375 287.84765625 l 2
 108.05078125 255.573242188 120.076171875 204.174804688 162.549804688 167.6484375 c 0
 188.647460938 145.205078125 226.240234375 128.375 279.358398438 125.046875 c 0
 285.684570312 124.650390625 292.23046875 124.446289062 299.005859375 124.446289062 c 0
 419.892578125 124.446289062 479.432617188 164.704101562 479.432617188 238.435546875 c 0
 479.432617188 301.322265625 423.427734375 343.305664062 342.770507812 361.704101562 c 0
 328.861328125 364.875976562 314.219726562 367.34765625 299.005859375 369.103515625 c 0
 275.059570312 371.8671875 247.704101562 375.318359375 219.798828125 381.30859375 c 0
 127.149414062 401.196289062 28.4453125 449.0703125 28.4453125 592.6953125 c 0
 30.5205078125 669.3984375 87.537109375 822.802734375 299.005859375 822.802734375 c 0
 312.295898438 822.802734375 325.14453125 822.099609375 337.551757812 820.770507812 c 2
 367.647460938 933.084960938 l 0
 367.947265625 934.206054688 l 1
 487.583007812 902.150390625 l 1
 456.083984375 784.591796875 l 1
 540.953125 739.015625 587.33203125 663.30078125 594.169921875 617.838867188 c 1
EndSplineSet
EndChar

StartChar: percent
Encoding: 37 37 38
Width: 850
Flags: HW
LayerCount: 2
Fore
SplineSet
585.081054688 781.627929688 m 1
 133.955078125 0.255859375 l 1
 269.5234375 0.255859375 l 1
 720.649414062 781.627929688 l 1
 585.081054688 781.627929688 l 1
208.81640625 432.609375 m 0
 305.365234375 432.609375 383.6328125 510.875976562 383.6328125 607.424804688 c 0
 383.6328125 703.973632812 305.365234375 782.241210938 208.81640625 782.241210938 c 0
 112.267578125 782.241210938 34 703.973632812 34 607.424804688 c 0
 34 510.875976562 112.267578125 432.609375 208.81640625 432.609375 c 0
208.81640625 548.72265625 m 0
 176.395507812 548.72265625 150.114257812 575.004882812 150.114257812 607.424804688 c 0
 150.114257812 639.844726562 176.395507812 666.127929688 208.81640625 666.127929688 c 0
 241.237304688 666.127929688 267.518554688 639.844726562 267.518554688 607.424804688 c 0
 267.518554688 575.004882812 241.237304688 548.72265625 208.81640625 548.72265625 c 0
641.422851562 -0.048828125 m 0
 737.971679688 -0.048828125 816.239257812 78.21875 816.239257812 174.766601562 c 0
 816.239257812 271.315429688 737.971679688 349.583007812 641.422851562 349.583007812 c 0
 544.875 349.583007812 466.607421875 271.315429688 466.607421875 174.766601562 c 0
 466.607421875 78.21875 544.875 -0.048828125 641.422851562 -0.048828125 c 0
641.422851562 116.064453125 m 0
 609.002929688 116.064453125 582.720703125 142.346679688 582.720703125 174.766601562 c 0
 582.720703125 207.1875 609.002929688 233.46875 641.422851562 233.46875 c 0
 673.84375 233.46875 700.125 207.1875 700.125 174.766601562 c 0
 700.125 142.346679688 673.84375 116.064453125 641.422851562 116.064453125 c 0
EndSplineSet
EndChar

StartChar: ampersand
Encoding: 38 38 39
Width: 635
Flags: HW
LayerCount: 2
Fore
SplineSet
548.192382812 563.547851562 m 1
 430.024414062 563.547851562 l 1
 430.024414062 513.671875 l 1
 283.1953125 513.671875 l 2
 229.112304688 513.671875 216.258789062 550.5625 215.395507812 591.15625 c 0
 214.53125 631.75 242.6015625 666.729492188 298.7421875 664.5703125 c 0
 343.655273438 662.842773438 377.626953125 636.500976562 388.999023438 623.544921875 c 2
 474.67578125 704.05859375 l 1
 427.330078125 746.739257812 365.075195312 784.268554688 298.434570312 782.326171875 c 0
 297.147460938 782.2890625 295.859375 782.237304688 294.569335938 782.169921875 c 0
 293.801757812 782.129882812 293.033203125 782.083984375 292.263671875 782.034179688 c 0
 148.02734375 772.533203125 98.365234375 676.662109375 98.365234375 591.15625 c 0
 98.365234375 522.751953125 123.411132812 481.178710938 135.935546875 468.943359375 c 1
 52.6748046875 416.430664062 33.298828125 305.794921875 34.01953125 257.041015625 c 0
 36.279296875 173.170898438 89.0908203125 6.984375 280.795898438 0.8447265625 c 0
 282.780273438 0.78125 284.780273438 0.734375 286.795898438 0.7060546875 c 0
 288.459960938 0.681640625 290.134765625 0.669921875 291.8203125 0.669921875 c 0
 304.74609375 0.669921875 317.0625 1.37890625 328.795898438 2.7275390625 c 0
 499.25 22.3291015625 546.482421875 177.087890625 548.192382812 257.041015625 c 2
 548.192382812 395.770507812 l 1
 601.250976562 395.770507812 l 1
 601.250976562 513.671875 l 1
 548.192382812 513.671875 l 1
 548.192382812 563.547851562 l 1
283.1953125 395.770507812 m 2
 429.9453125 395.770507812 l 1
 429.9453125 257.041015625 l 2
 429.9453125 139.6875 332.112304688 115.637695312 283.1953125 118.282226562 c 0
 239.723632812 115.547851562 152.77734375 139.470703125 152.77734375 257.041015625 c 0
 152.77734375 374.61328125 239.723632812 398.515625 283.1953125 395.770507812 c 2
EndSplineSet
EndChar

StartChar: parenleft
Encoding: 40 40 41
Width: 451
Flags: W
VStem: 34 120.32<201.558 558.616>
LayerCount: 2
Fore
SplineSet
416.965820312 849.432617188 m 1
 385.151367188 961.020507812 l 1
 385.151367188 961.020507812 378.09375 959.1640625 365.979492188 954.590820312 c 0
 292.643554688 926.90625 34 799.678710938 34 382.266601562 c 0
 34 -104.091796875 383.033203125 -206.403320312 383.033203125 -206.403320312 c 1
 417.106445312 -93.455078125 l 1
 417.106445312 -93.455078125 154.3203125 -16.208984375 154.3203125 382.266601562 c 0
 154.3203125 780.744140625 416.965820312 849.432617188 416.965820312 849.432617188 c 1
EndSplineSet
EndChar

StartChar: parenright
Encoding: 41 41 42
Width: 451
Flags: W
VStem: 296.786 120.319<200.558 561.374>
LayerCount: 2
Fore
SplineSet
34.140625 848.432617188 m 1
 34.140625 848.432617188 296.786132812 779.744140625 296.786132812 381.266601562 c 0
 296.786132812 -17.208984375 34 -94.455078125 34 -94.455078125 c 1
 68.0732421875 -207.403320312 l 1
 68.0732421875 -207.403320312 417.10546875 -105.091796875 417.10546875 381.266601562 c 0
 417.10546875 867.629882812 65.955078125 960.020507812 65.955078125 960.020507812 c 1
 34.140625 848.432617188 l 1
EndSplineSet
EndChar

StartChar: asterisk
Encoding: 42 42 43
Width: 466
Flags: HW
LayerCount: 2
Fore
SplineSet
292.983398438 780.654296875 m 1
 228.208007812 780.654296875 l 0
 176.081054688 780.654296875 l 1
 185.333007812 657.721679688 l 1
 70.212890625 704.693359375 l 1
 34 593.583007812 l 1
 148.016601562 572.59375 l 1
 74.181640625 472.31640625 l 1
 168.424804688 402.431640625 l 1
 232.94921875 516.140625 l 1
 296.669921875 402.431640625 l 1
 391.982421875 470.23046875 l 1
 313.21875 568.706054688 l 1
 432.266601562 593.583007812 l 1
 396.1953125 704.693359375 l 1
 281.34375 657.721679688 l 1
 292.983398438 780.654296875 l 1
EndSplineSet
EndChar

StartChar: period
Encoding: 46 46 47
Width: 160
Flags: W
LayerCount: 2
Fore
SplineSet
20.052734375 61 m 0
 19.3857421875 77.6669921875 25.052734375 92 37.052734375 104 c 0
 49.052734375 116 63.3857421875 121.833007812 80.052734375 121.5 c 0
 96.7197265625 121.833007812 111.052734375 116 123.052734375 104 c 0
 135.052734375 92 140.885742188 77.6669921875 140.552734375 61 c 0
 140.885742188 44.3330078125 135.052734375 30 123.052734375 18 c 0
 111.052734375 6 96.7197265625 0.1669921875 80.052734375 0.5 c 0
 63.3857421875 0.1669921875 49.052734375 6 37.052734375 18 c 0
 25.052734375 30 19.3857421875 44.3330078125 20.052734375 61 c 0
EndSplineSet
EndChar

StartChar: zero
Encoding: 48 48 49
Width: 659
Flags: HW
LayerCount: 2
Fore
SplineSet
37.5 408.3984375 m 0
 37.5 448.295898438 40.5263671875 485.161132812 46.580078125 518.994140625 c 0
 52.6328125 552.825195312 60.390625 581.64453125 69.853515625 605.452148438 c 0
 79.3173828125 629.259765625 91.1298828125 650.779296875 105.291992188 670.010742188 c 0
 119.454101562 689.2421875 133.293945312 704.796875 146.811523438 716.674804688 c 0
 160.329101562 728.552734375 175.609375 738.848632812 192.65234375 747.5625 c 0
 209.6953125 756.276367188 224.388671875 762.647460938 236.733398438 766.67578125 c 0
 249.076171875 770.704101562 262.595703125 773.856445312 277.291015625 776.1328125 c 0
 291.985351562 778.409179688 302.303710938 779.678710938 308.245117188 779.940429688 c 0
 314.1875 780.201171875 320.627929688 780.33203125 327.56640625 780.33203125 c 0
 334.541992188 780.33203125 341.034179688 780.201171875 347.04296875 779.940429688 c 0
 353.051757812 779.678710938 363.50390625 778.409179688 378.400390625 776.1328125 c 0
 393.296875 773.85546875 407.015625 770.703125 419.557617188 766.674804688 c 0
 432.098632812 762.646484375 447.024414062 756.275390625 464.333984375 747.561523438 c 0
 481.643554688 738.846679688 497.172851562 728.55078125 510.920898438 716.674804688 c 0
 524.66796875 704.798828125 538.740234375 689.244140625 553.13671875 670.010742188 c 0
 567.533203125 650.77734375 579.545898438 629.2578125 589.173828125 605.451171875 c 0
 598.801757812 581.645507812 606.694335938 552.826171875 612.8515625 518.993164062 c 0
 619.008789062 485.159179688 622.086914062 448.293945312 622.086914062 408.397460938 c 0
 622.086914062 357.158203125 618.293945312 310.651367188 610.708007812 268.876953125 c 0
 603.122070312 227.1015625 593.321289062 192.348632812 581.3046875 164.619140625 c 0
 569.288085938 136.889648438 554.557617188 112.614257812 537.11328125 91.7919921875 c 0
 519.668945312 70.9697265625 502.420898438 54.8896484375 485.369140625 43.552734375 c 0
 468.317382812 32.2158203125 449.541015625 23.12109375 429.040039062 16.2685546875 c 0
 408.5390625 9.416015625 390.646484375 5.025390625 375.361328125 3.09765625 c 0
 360.076171875 1.1689453125 344.145507812 0.205078125 327.568359375 0.205078125 c 0
 311.020507812 0.205078125 295.172851562 1.169921875 280.025390625 3.0986328125 c 0
 264.877929688 5.0283203125 247.1953125 9.41796875 226.977539062 16.2666015625 c 0
 206.759765625 23.115234375 188.275390625 32.2109375 171.524414062 43.5537109375 c 0
 154.772460938 54.896484375 137.837890625 70.974609375 120.721679688 91.7890625 c 0
 103.60546875 112.602539062 89.1669921875 136.87890625 77.4052734375 164.619140625 c 0
 65.64453125 192.359375 56.0537109375 227.110351562 48.6337890625 268.873046875 c 0
 41.2138671875 310.634765625 37.5 357.14453125 37.5 408.3984375 c 0
327.569335938 664.350585938 m 0
 321.357421875 664.350585938 315.561523438 664.158203125 310.180664062 663.774414062 c 0
 304.80078125 663.390625 295.75 661.536132812 283.028320312 658.2109375 c 0
 270.305664062 654.88671875 258.869140625 650.274414062 248.71875 644.373046875 c 0
 238.567382812 638.471679688 227.229492188 629.155273438 214.705078125 616.423828125 c 0
 202.180664062 603.69140625 191.704101562 588.630859375 183.275390625 571.243164062 c 0
 174.846679688 553.85546875 167.71484375 531.107421875 161.879882812 502.998046875 c 0
 156.044921875 474.888671875 153.127929688 443.35546875 153.127929688 408.397460938 c 0
 153.127929688 213.458984375 211.275390625 115.990234375 327.569335938 115.990234375 c 0
 446.852539062 115.990234375 506.494140625 213.458984375 506.494140625 408.397460938 c 0
 506.494140625 443.3515625 503.4921875 474.884765625 497.487304688 502.997070312 c 0
 491.482421875 531.110351562 484.141601562 553.859375 475.46484375 571.244140625 c 0
 466.787109375 588.629882812 456.014648438 603.689453125 443.146484375 616.422851562 c 0
 430.27734375 629.157226562 418.625976562 638.474609375 408.192382812 644.374023438 c 0
 397.7578125 650.2734375 386.025390625 654.885742188 372.994140625 658.2109375 c 0
 359.962890625 661.536132812 350.702148438 663.390625 345.212890625 663.774414062 c 0
 339.723632812 664.158203125 333.841796875 664.350585938 327.569335938 664.350585938 c 0
EndSplineSet
EndChar

StartChar: one
Encoding: 49 49 50
Width: 260
Flags: W
LayerCount: 2
Fore
SplineSet
110.37890625 0 m 1
 110.37890625 663.75 l 1
 54.12890625 663.75 l 2
 52.62890625 663.75 55.62890625 676.5 63.12890625 702 c 0
 70.62890625 727.5 78.12890625 753.75 85.62890625 780.75 c 1
 110.37890625 780.75 l 1
 227.37890625 780.75 l 1
 227.37890625 0 l 1
 110.37890625 0 l 1
EndSplineSet
EndChar

StartChar: two
Encoding: 50 50 51
Width: 666
Flags: HW
LayerCount: 2
Fore
SplineSet
630.717773438 116.8984375 m 1
 630.717773438 -0.1435546875 l 1
 47.291015625 -0.1435546875 l 1
 45.626953125 116.8984375 l 1
 415.9453125 330.279296875 l 2
 445.272460938 344.944335938 468.892578125 366.389648438 486.8046875 394.616210938 c 0
 504.717773438 422.84375 513.673828125 453.868164062 513.673828125 487.690429688 c 0
 513.673828125 536.171875 496.533203125 577.552734375 462.251953125 611.833984375 c 0
 427.970703125 646.114257812 386.58984375 663.254882812 338.108398438 663.254882812 c 0
 297.93359375 663.254882812 262.163085938 651.053710938 230.796875 626.65234375 c 0
 199.4296875 602.25 178.671875 571.12890625 168.5234375 533.288085938 c 1
 55.6572265625 564.243164062 l 1
 66.8359375 605.50390625 86.037109375 642.474609375 113.260742188 675.15625 c 0
 140.484375 707.837890625 173.708007812 733.505859375 212.932617188 752.161132812 c 0
 252.157226562 770.81640625 293.881835938 780.143554688 338.107421875 780.143554688 c 0
 391.098632812 780.143554688 440.0625 767.091796875 484.999023438 740.98828125 c 0
 529.935546875 714.883789062 565.456054688 679.36328125 591.559570312 634.426757812 c 0
 617.6640625 589.490234375 630.715820312 540.526367188 630.715820312 487.53515625 c 0
 630.715820312 432.423828125 616.466796875 381.75 587.969726562 335.514648438 c 0
 559.47265625 289.279296875 521.668945312 253.6484375 474.55859375 228.623046875 c 2
 284.6015625 118.946289062 l 2
 282.765625 117.922851562 281.879882812 117.326171875 281.943359375 117.155273438 c 0
 282.006835938 116.984375 283.083984375 116.8984375 285.174804688 116.8984375 c 2
 630.717773438 116.8984375 l 1
EndSplineSet
EndChar

StartChar: three
Encoding: 51 51 52
Width: 628
Flags: HW
LayerCount: 2
Fore
SplineSet
148.610351562 543.360351562 m 1
 29.6435546875 575.510742188 l 1
 31.4140625 587.278320312 35.642578125 600.193359375 42.3291015625 614.256835938 c 0
 49.015625 628.3203125 57.9482421875 643.055664062 69.126953125 658.461914062 c 0
 80.306640625 673.869140625 94.3662109375 688.693359375 111.3046875 702.935546875 c 0
 128.243164062 717.178710938 146.876953125 730.02734375 167.206054688 741.481445312 c 0
 187.533203125 752.936523438 211.227539062 762.100585938 238.288085938 768.974609375 c 0
 265.348632812 775.848632812 293.6171875 779.28515625 323.092773438 779.28515625 c 0
 363.119140625 779.28515625 399.244140625 773.807617188 431.467773438 762.8515625 c 0
 463.689453125 751.895507812 489.510742188 738.112304688 508.931640625 721.501953125 c 0
 528.352539062 704.892578125 544.579101562 685.971679688 557.611328125 664.740234375 c 0
 570.64453125 643.508789062 579.647460938 623.454101562 584.619140625 604.577148438 c 0
 589.592773438 585.701171875 592.079101562 567.680664062 592.079101562 550.515625 c 0
 592.079101562 514.89453125 580.317382812 481.4453125 556.794921875 450.166992188 c 0
 533.2734375 418.888671875 510.241210938 398.921875 487.69921875 390.265625 c 1
 497.641601562 385.045898438 508.245117188 377.56640625 519.509765625 367.827148438 c 0
 530.775390625 358.086914062 542.049804688 346.397460938 553.33203125 332.759765625 c 0
 564.615234375 319.12109375 573.939453125 303.16015625 581.303710938 284.877929688 c 0
 588.666992188 266.595703125 592.348632812 248.205078125 592.348632812 229.706054688 c 0
 592.348632812 213.44921875 589.864257812 196.018554688 584.89453125 177.415039062 c 0
 579.924804688 158.811523438 570.905273438 138.8125 557.8359375 117.416992188 c 0
 544.765625 96.021484375 528.53125 76.8564453125 509.1328125 59.9228515625 c 0
 489.734375 42.98828125 463.879882812 28.88671875 431.568359375 17.6181640625 c 0
 399.256835938 6.349609375 363.1015625 0.7158203125 323.102539062 0.7158203125 c 0
 287.9765625 0.7158203125 254.619140625 5.623046875 223.030273438 15.4384765625 c 0
 191.442382812 25.2529296875 164.657226562 37.73828125 142.67578125 52.8955078125 c 0
 120.694335938 68.052734375 101.262695312 84.9384765625 84.380859375 103.552734375 c 0
 67.4990234375 122.166992188 54.6494140625 140.091796875 45.83203125 157.327148438 c 0
 37.0146484375 174.563476562 31.52734375 190.349609375 29.3701171875 204.684570312 c 1
 148.452148438 236.866210938 l 1
 151.475585938 226.03125 156.862304688 214.725585938 164.61328125 202.948242188 c 0
 172.364257812 191.170898438 182.912109375 179.040039062 196.256835938 166.556640625 c 0
 209.6015625 154.073242188 227.359375 143.827148438 249.530273438 135.818359375 c 0
 271.701171875 127.809570312 296.224609375 123.805664062 323.1015625 123.805664062 c 0
 349.979492188 123.805664062 373.469726562 127.556640625 393.572265625 135.057617188 c 0
 413.67578125 142.55859375 428.788085938 152.15625 438.909179688 163.849609375 c 0
 449.03125 175.541992188 456.446289062 186.904296875 461.155273438 197.935546875 c 0
 465.865234375 208.966796875 468.333007812 219.556640625 468.55859375 229.705078125 c 0
 470.526367188 256.817382812 451.559570312 280.46875 411.658203125 300.66015625 c 0
 371.756835938 320.852539062 321.8359375 330.948242188 261.895507812 330.948242188 c 1
 261.907226562 449.388671875 l 1
 321.203125 449.388671875 370.93359375 459.494140625 411.098632812 479.704101562 c 0
 451.263671875 499.9140625 470.366210938 523.517578125 468.40625 550.514648438 c 0
 468.180664062 560.653320312 465.71484375 571.232421875 461.009765625 582.252929688 c 0
 456.3046875 593.2734375 448.896484375 604.625 438.78515625 616.307617188 c 0
 428.673828125 627.989257812 413.576171875 637.577148438 393.493164062 645.071289062 c 0
 373.409179688 652.564453125 349.94140625 656.311523438 323.08984375 656.311523438 c 0
 296.239257812 656.311523438 271.73828125 652.311523438 249.587890625 644.311523438 c 0
 227.438476562 636.310546875 209.697265625 626.07421875 196.365234375 613.602539062 c 0
 183.033203125 601.130859375 172.49609375 589.01171875 164.752929688 577.24609375 c 0
 157.009765625 565.481445312 151.630859375 554.185546875 148.610351562 543.360351562 c 1
EndSplineSet
EndChar

StartChar: four
Encoding: 52 52 53
Width: 636
Flags: W
LayerCount: 2
Fore
SplineSet
541.869140625 389.25 m 1
 602.619140625 389.25 l 1
 568.869140625 270 l 1
 541.869140625 270 l 1
 541.869140625 0 l 1
 424.869140625 0 l 1
 424.869140625 270 l 1
 13.119140625 270 l 1
 152.619140625 783 l 1
 274.119140625 783 l 1
 168.369140625 389.25 l 1
 424.869140625 389.25 l 1
 424.869140625 783 l 1
 541.869140625 783 l 1
 541.869140625 389.25 l 1
EndSplineSet
EndChar

StartChar: five
Encoding: 53 53 54
Width: 704
Flags: HW
LayerCount: 2
Fore
SplineSet
640.73046875 663.188476562 m 1
 207.223632812 663.188476562 l 1
 207.223632812 535.815429688 l 2
 207.223632812 533.54296875 207.366210938 532.30078125 207.65234375 532.088867188 c 0
 207.938476562 531.876953125 208.938476562 532.3515625 210.653320312 533.513671875 c 0
 260.53125 567.984375 315.901367188 585.219726562 376.763671875 585.219726562 c 0
 429.740234375 585.219726562 478.690429688 572.170898438 523.615234375 546.07421875 c 0
 568.540039062 519.977539062 604.05078125 484.466796875 630.147460938 439.541992188 c 0
 656.244140625 394.618164062 669.29296875 345.66796875 669.29296875 292.690429688 c 0
 669.29296875 239.71875 656.245117188 190.772460938 630.150390625 145.852539062 c 0
 604.055664062 100.932617188 568.548828125 65.42578125 523.62890625 39.3310546875 c 0
 478.709960938 13.236328125 429.764648438 0.189453125 376.79296875 0.189453125 c 0
 309.9921875 0.189453125 250.4921875 20.443359375 198.293945312 60.9501953125 c 0
 146.095703125 101.45703125 111.479492188 153.143554688 94.4462890625 216.010742188 c 1
 207.26953125 246.955078125 l 1
 217.415039062 209.127929688 238.165039062 178.017578125 269.520507812 153.624023438 c 0
 300.875 129.231445312 336.6328125 117.03515625 376.79296875 117.03515625 c 0
 425.255859375 117.03515625 466.62109375 134.168945312 500.889648438 168.4375 c 0
 535.158203125 202.706054688 552.29296875 244.072265625 552.29296875 292.53515625 c 0
 552.29296875 341.022460938 535.150390625 382.44921875 500.864257812 416.815429688 c 0
 466.580078125 451.181640625 425.213867188 468.365234375 376.765625 468.365234375 c 0
 336.6015625 468.365234375 300.840820312 456.166992188 269.482421875 431.771484375 c 0
 238.124023438 407.375976562 217.37109375 376.262695312 207.224609375 338.431640625 c 1
 94.3896484375 369.37890625 l 1
 94.3896484375 663.190429688 l 1
 94.3896484375 780.19140625 l 1
 640.731445312 780.19140625 l 1
 640.73046875 663.188476562 l 1
EndSplineSet
EndChar

StartChar: six
Encoding: 54 54 55
Width: 659
Flags: HW
LayerCount: 2
Fore
SplineSet
622.204101562 292.327148438 m 0
 622.204101562 239.3828125 609.163085938 190.461914062 583.08203125 145.564453125 c 0
 557.000976562 100.666992188 521.51171875 65.177734375 476.614257812 39.0966796875 c 0
 431.716796875 13.015625 382.795898438 -0.025390625 329.850585938 -0.025390625 c 0
 276.90625 -0.025390625 227.985351562 13.015625 183.087890625 39.0966796875 c 0
 138.190429688 65.177734375 102.701171875 100.666992188 76.6201171875 145.564453125 c 0
 50.5390625 190.4609375 37.498046875 239.381835938 37.498046875 292.327148438 c 0
 37.498046875 346.376953125 51.328125 396.448242188 78.9892578125 442.541992188 c 2
 273.017578125 780.805664062 l 1
 407.578125 780.805664062 l 1
 295.196289062 586.135742188 l 2
 294.11328125 584.258789062 293.65625 583.184570312 293.826171875 582.9140625 c 0
 293.99609375 582.642578125 295.131835938 582.630859375 297.234375 582.879882812 c 0
 308.03515625 584.079101562 318.907226562 584.678710938 329.849609375 584.678710938 c 0
 382.794921875 584.678710938 431.715820312 571.637695312 476.61328125 545.556640625 c 0
 521.510742188 519.475585938 557 483.986328125 583.081054688 439.08984375 c 0
 609.162109375 394.192382812 622.204101562 345.271484375 622.204101562 292.327148438 c 0
329.416015625 117.759765625 m 0
 377.912109375 117.759765625 419.305664062 134.905273438 453.59765625 169.197265625 c 0
 487.889648438 203.489257812 505.03515625 244.8828125 505.03515625 293.377929688 c 0
 505.03515625 341.873046875 487.889648438 383.266601562 453.59765625 417.55859375 c 0
 419.305664062 451.850585938 377.912109375 468.99609375 329.416992188 468.99609375 c 0
 280.921875 468.99609375 239.528320312 451.850585938 205.236328125 417.55859375 c 0
 170.944335938 383.266601562 153.798828125 341.873046875 153.798828125 293.377929688 c 0
 153.798828125 244.8828125 170.944335938 203.489257812 205.236328125 169.197265625 c 0
 239.528320312 134.905273438 280.920898438 117.759765625 329.416015625 117.759765625 c 0
EndSplineSet
EndChar

StartChar: seven
Encoding: 55 55 56
Width: 623
Flags: HW
LayerCount: 2
Fore
SplineSet
603.9765625 780.095703125 m 5
 279.901367188 -0.0458984375 l 5
 154.69140625 -0.0458984375 l 5
 428.724609375 661.787109375 l 5
 19.724609375 661.787109375 l 5
 19.724609375 780.095703125 l 5
 603.9765625 780.095703125 l 5
EndSplineSet
EndChar

StartChar: eight
Encoding: 56 56 57
Width: 657
Flags: W
HStem: 0.614258 117.086<228.379 434.72> 350.252 118.765<244.142 417.161> 664.172 117.113<244.499 417.428>
VStem: 37.5 118.651<177.153 290.848> 76.5332 117.192<514.174 619.308> 467.719 116.253<513.437 619.242> 506.169 116.837<177.642 291.141>
LayerCount: 2
Fore
SplineSet
520.708007812 424.754882812 m 0xec
 517.59765625 421.674804688 515.112304688 419.299804688 513.252929688 417.62890625 c 1
 515.709960938 416.266601562 518.76953125 414.416015625 522.432617188 412.077148438 c 0
 526.095703125 409.739257812 532.3671875 404.967773438 541.248046875 397.763671875 c 0
 550.12890625 390.559570312 558.439453125 382.84375 566.1796875 374.6171875 c 0
 573.918945312 366.391601562 582.063476562 355.685546875 590.61328125 342.499023438 c 0
 599.161132812 329.3125 605.965820312 315.591796875 611.02734375 301.336914062 c 0
 619.012695312 279.732421875 623.005859375 257.557617188 623.005859375 234.813476562 c 0
 623.005859375 184.87890625 604.962890625 139.642578125 568.875976562 99.10546875 c 0
 528.248046875 47.8837890625 469.772460938 16.8779296875 393.450195312 6.0869140625 c 0
 372.73046875 2.4384765625 351.665039062 0.6142578125 330.25390625 0.6142578125 c 0
 306.083007812 0.6142578125 282.380859375 2.9326171875 259.147460938 7.5693359375 c 0
 193.524414062 18.56640625 141.444335938 45.126953125 102.90625 87.2509765625 c 0
 59.3017578125 130.192382812 37.5 179.379882812 37.5 234.813476562 c 0xf2
 37.5 265.490234375 44.544921875 294.671875 58.6357421875 322.358398438 c 0
 72.7265625 350.043945312 92.4677734375 374.58984375 117.859375 395.99609375 c 0
 128.053710938 404.740234375 137.616210938 411.80078125 146.547851562 417.176757812 c 2
 147.426757812 417.7421875 l 2
 145.99609375 418.922851562 144.124023438 420.623046875 141.811523438 422.842773438 c 0
 98.29296875 463.66015625 76.533203125 511.579101562 76.533203125 566.599609375 c 0
 76.533203125 611.266601562 91.482421875 651.904296875 121.381835938 688.512695312 c 0
 157.95703125 738.75390625 211.862304688 768.444335938 283.09765625 777.583984375 c 0
 298.609375 780.051757812 314.328125 781.28515625 330.252929688 781.28515625 c 0
 344.015625 781.28515625 357.633789062 780.362304688 371.108398438 778.516601562 c 0
 451.747070312 770.1015625 510.625976562 736.333984375 547.74609375 677.212890625 c 0
 571.896484375 643.288085938 583.971679688 606.416992188 583.971679688 566.599609375 c 0
 583.971679688 512.549804688 562.883789062 465.267578125 520.708007812 424.754882812 c 0xec
467.71875 566.594726562 m 0xec
 467.71875 593.5390625 454.34375 616.538085938 427.59375 635.591796875 c 0
 400.84375 654.645507812 368.552734375 664.171875 330.721679688 664.171875 c 0
 292.890625 664.171875 260.600585938 654.645507812 233.850585938 635.591796875 c 0
 207.100585938 616.538085938 193.725585938 593.5390625 193.725585938 566.594726562 c 0
 193.725585938 539.649414062 207.100585938 516.649414062 233.850585938 497.595703125 c 0
 260.600585938 478.54296875 292.890625 469.016601562 330.721679688 469.016601562 c 0
 368.552734375 469.016601562 400.84375 478.54296875 427.59375 497.595703125 c 0
 454.34375 516.649414062 467.71875 539.649414062 467.71875 566.594726562 c 0xec
331.16015625 117.700195312 m 0
 379.487304688 117.700195312 420.737304688 129.052734375 454.91015625 151.756835938 c 0
 489.083007812 174.4609375 506.168945312 201.8671875 506.168945312 233.9765625 c 0
 506.168945312 266.084960938 489.083007812 293.491210938 454.91015625 316.1953125 c 0
 420.737304688 338.899414062 379.487304688 350.251953125 331.16015625 350.251953125 c 0
 282.833007812 350.251953125 241.583007812 338.899414062 207.41015625 316.1953125 c 0
 173.237304688 293.491210938 156.151367188 266.084960938 156.151367188 233.9765625 c 0xf2
 156.151367188 201.8671875 173.237304688 174.4609375 207.41015625 151.756835938 c 0
 241.583007812 129.052734375 282.833007812 117.700195312 331.16015625 117.700195312 c 0
EndSplineSet
EndChar

StartChar: nine
Encoding: 57 57 58
Width: 649
Flags: HW
LayerCount: 2
Fore
SplineSet
29.373046875 488.912109375 m 0
 29.373046875 541.831054688 42.4072265625 590.727539062 68.4755859375 635.602539062 c 0
 94.5439453125 680.477539062 130.015625 715.94921875 174.890625 742.017578125 c 0
 219.766601562 768.084960938 268.6640625 781.119140625 321.583007812 781.119140625 c 0
 374.500976562 781.119140625 423.397460938 768.084960938 468.2734375 742.017578125 c 0
 513.147460938 715.94921875 548.619140625 680.477539062 574.688476562 635.602539062 c 0
 600.756835938 590.7265625 613.791015625 541.830078125 613.791015625 488.912109375 c 0
 613.791015625 434.890625 599.966796875 384.84375 572.319335938 338.771484375 c 2
 378.38671875 0.67578125 l 1
 243.891601562 0.67578125 l 1
 357.596679688 197.635742188 l 2
 358.122070312 198.544921875 357.776367188 198.924804688 356.55859375 198.776367188 c 0
 344.978515625 197.39453125 333.3203125 196.704101562 321.583007812 196.704101562 c 0
 268.6640625 196.704101562 219.766601562 209.73828125 174.890625 235.806640625 c 0
 130.015625 261.875 94.5439453125 297.346679688 68.4755859375 342.221679688 c 0
 42.4072265625 387.096679688 29.373046875 435.993164062 29.373046875 488.912109375 c 0
322.015625 663.391601562 m 0
 273.543945312 663.391601562 232.170898438 646.254882812 197.896484375 611.98046875 c 0
 163.622070312 577.706054688 146.484375 536.333007812 146.484375 487.861328125 c 0
 146.484375 439.389648438 163.622070312 398.016601562 197.896484375 363.7421875 c 0
 232.170898438 329.467773438 273.543945312 312.331054688 322.015625 312.331054688 c 0
 370.487304688 312.331054688 411.860351562 329.467773438 446.134765625 363.7421875 c 0
 480.409179688 398.016601562 497.546875 439.389648438 497.546875 487.861328125 c 0
 497.546875 536.333007812 480.409179688 577.706054688 446.134765625 611.98046875 c 0
 411.860351562 646.254882812 370.487304688 663.391601562 322.015625 663.391601562 c 0
EndSplineSet
EndChar

StartChar: at
Encoding: 64 64 65
Width: 854
Flags: HW
LayerCount: 2
Fore
SplineSet
702.821289062 10.3486328125 m 1
 666.858398438 -25.572265625 625.161132812 -53.5556640625 577.729492188 -73.6015625 c 0
 530.297851562 -93.6455078125 480.165039062 -103.66796875 427.33203125 -103.66796875 c 0
 374.458007812 -103.66796875 323.95703125 -93.376953125 275.829101562 -72.7958984375 c 0
 227.701171875 -52.2138671875 186.23828125 -24.5244140625 151.440429688 10.2734375 c 0
 116.642578125 45.0703125 88.953125 86.5322265625 68.3720703125 134.66015625 c 0
 47.7900390625 182.788085938 37.4990234375 233.2890625 37.4990234375 286.163085938 c 0
 37.4990234375 339.037109375 47.7900390625 389.538085938 68.3720703125 437.666015625 c 0
 88.953125 485.793945312 116.642578125 527.256835938 151.440429688 562.0546875 c 0
 186.23828125 596.852539062 227.701171875 624.541992188 275.829101562 645.123046875 c 0
 323.95703125 665.705078125 374.458007812 675.99609375 427.33203125 675.99609375 c 0
 480.206054688 675.99609375 530.70703125 665.705078125 578.834960938 645.123046875 c 0
 626.962890625 624.541992188 668.42578125 596.852539062 703.223632812 562.0546875 c 0
 738.021484375 527.256835938 765.7109375 485.793945312 786.291992188 437.666015625 c 0
 806.874023438 389.538085938 817.165039062 339.037109375 817.165039062 286.163085938 c 0
 817.165039062 231.790039062 806.38671875 179.889648438 784.829101562 130.461914062 c 1
 607.512695312 175.141601562 l 1
 588.904296875 143.90234375 563.641601562 119.013671875 531.725585938 100.474609375 c 0
 499.810546875 81.9365234375 465.012695312 72.6669921875 427.333007812 72.6669921875 c 0
 369.4609375 72.6669921875 320.063476562 93.1279296875 279.141601562 134.05078125 c 0
 238.219726562 174.971679688 217.758789062 224.368164062 217.758789062 282.240234375 c 0
 217.758789062 340.112304688 238.219726562 389.509765625 279.141601562 430.432617188 c 0
 320.063476562 471.354492188 369.4609375 491.815429688 427.333007812 491.815429688 c 0
 485.205078125 491.815429688 534.602539062 471.354492188 575.524414062 430.432617188 c 0
 616.446289062 389.510742188 636.907226562 340.11328125 636.907226562 282.240234375 c 0
 636.907226562 280.23046875 636.879882812 278.236328125 636.82421875 276.258789062 c 2
 717.919921875 254.564453125 l 1
 719.059570312 265.032226562 719.62890625 275.564453125 719.62890625 286.161132812 c 0
 719.62890625 338.4453125 706.750976562 386.756835938 680.995117188 431.094726562 c 0
 655.239257812 475.431640625 620.192382812 510.478515625 575.85546875 536.234375 c 0
 531.517578125 561.989257812 483.20703125 574.8671875 430.922851562 574.8671875 c 0
 378.638671875 574.8671875 330.328125 561.989257812 285.991210938 536.234375 c 0
 241.653320312 510.478515625 206.606445312 475.431640625 180.8515625 431.094726562 c 0
 155.094726562 386.756835938 142.216796875 338.4453125 142.216796875 286.161132812 c 0
 142.216796875 233.876953125 155.094726562 185.56640625 180.8515625 141.229492188 c 0
 206.606445312 96.892578125 241.653320312 61.845703125 285.991210938 36.08984375 c 0
 330.328125 10.333984375 378.638671875 -2.5439453125 430.922851562 -2.5439453125 c 0
 469.6171875 -2.5439453125 506.36328125 4.7197265625 541.162109375 19.248046875 c 0
 575.961914062 33.7763671875 606.640625 54.08203125 633.19921875 80.1650390625 c 1
 702.821289062 10.3486328125 l 1
535.48046875 282.2265625 m 0
 535.48046875 312.090820312 524.921875 337.58203125 503.8046875 358.69921875 c 0
 482.6875 379.81640625 457.197265625 390.375 427.333007812 390.375 c 0
 397.46875 390.375 371.978515625 379.81640625 350.862304688 358.69921875 c 0
 329.745117188 337.58203125 319.186523438 312.090820312 319.186523438 282.2265625 c 0
 319.186523438 252.362304688 329.745117188 226.872070312 350.862304688 205.755859375 c 0
 371.978515625 184.638671875 397.46875 174.080078125 427.333007812 174.080078125 c 0
 457.197265625 174.080078125 482.6875 184.638671875 503.8046875 205.755859375 c 0
 524.921875 226.872070312 535.48046875 252.362304688 535.48046875 282.2265625 c 0
EndSplineSet
EndChar

StartChar: A
Encoding: 65 65 66
Width: 653
Flags: W
HStem: 0 21G<34 151 502 619> 330.75 119.25<151 502> 661.5 119.25<230.938 431.783>
VStem: 34 117<0 330.75 450 573.97> 502 117<0 330.75 450 583.737>
LayerCount: 2
Fore
SplineSet
34 0 m 1
 34 450 l 2
 35.5 477 37.75 502.875 40.75 527.625 c 0
 43.75 552.375 51.25 580.875 63.25 613.125 c 0
 75.25 645.375 91.375 673.5 111.625 697.5 c 0
 131.875 721.5 160.75 741.375 198.25 757.125 c 0
 235.75 772.875 280 780.75 331 780.75 c 0
 368.5 780.75 401.5 776.625 430 768.375 c 0
 458.5 760.125 482.875 748.875 503.125 734.625 c 0
 523.375 720.375 540.625 703.5 554.875 684 c 0
 569.125 664.5 580.375 645.375 588.625 626.625 c 0
 596.875 607.875 603.25 586.875 607.75 563.625 c 0
 612.25 540.375 615.25 520.5 616.75 504 c 0
 618.25 487.5 619 469.5 619 450 c 2
 619 0 l 1
 502 0 l 1
 502 330.75 l 1
 151 330.75 l 1
 151 0 l 1
 34 0 l 1
502 450 m 1
 502 474.75 l 2
 502 480.75 501.25 489.75 499.75 501.75 c 0
 498.25 513.75 496.375 523.875 494.125 532.125 c 0
 491.875 540.375 489.25 550.875 486.25 563.625 c 0
 483.25 576.375 478.75 587.25 472.75 596.25 c 0
 466.75 605.25 459.625 614.25 451.375 623.25 c 0
 443.125 632.25 433.375 639.375 422.125 644.625 c 0
 410.875 649.875 397.375 654 381.625 657 c 0
 365.875 660 349 661.5 331 661.5 c 0
 307 661.5 285.625 658.875 266.875 653.625 c 0
 248.125 648.375 232.75 641.625 220.75 633.375 c 0
 208.75 625.125 198.25 614.25 189.25 600.75 c 0
 180.25 587.25 173.125 574.5 167.875 562.5 c 0
 162.625 550.5 158.875 536.625 156.625 520.875 c 0
 154.375 505.125 152.875 492.375 152.125 482.625 c 0
 151.375 472.875 151 462 151 450 c 1
 502 450 l 1
EndSplineSet
EndChar

StartChar: B
Encoding: 66 66 67
Width: 652
Flags: W
LayerCount: 2
Fore
SplineSet
36 780.75 m 1
 339.75 780.75 l 2
 356.25 780.75 373.875 778.5 392.625 774 c 0
 411.375 769.5 430.875 761.625 451.125 750.375 c 0
 471.375 739.125 489.75 725.625 506.25 709.875 c 0
 522.75 694.125 536.25 673.5 546.75 648 c 0
 557.25 622.5 562.5 592.5 562.5 558 c 0
 562.5 498 546 450 513 414 c 1
 547.5 394.5 574.125 369.375 592.875 338.625 c 0
 611.625 307.875 621 270 621 225 c 0
 621 195 616.125 167.625 606.375 142.875 c 0
 596.625 118.125 584.25 97.5 569.25 81 c 0
 554.25 64.5 537.75 50.625 519.75 39.375 c 0
 501.75 28.125 481.875 19.5 460.125 13.5 c 0
 438.375 7.5 418.5 3.375 400.5 1.125 c 0
 382.5 -1.125 365.25 -1.5 348.75 0 c 2
 36 0 l 1
 36 780.75 l 1
344.25 661.5 m 2
 153 661.5 l 1
 153 447.75 l 1
 344.25 447.75 l 2
 353.25 447.75 363 450.375 373.5 455.625 c 0
 384 460.875 394.5 467.625 405 475.875 c 0
 415.5 484.125 424.875 495.75 433.125 510.75 c 0
 441.375 525.75 445.5 542.625 445.5 561.375 c 0
 445.5 580.125 441.375 596.625 433.125 610.875 c 0
 424.875 625.125 415.5 636 405 643.5 c 0
 394.5 651 384 655.875 373.5 658.125 c 0
 363 660.375 353.25 661.5 344.25 661.5 c 2
153 117 m 1
 344.25 117 l 2
 449.25 117 501.75 153 501.75 225 c 0
 501.75 243 498 258.375 490.5 271.125 c 0
 483 283.875 473.625 294 462.375 301.5 c 0
 451.125 309 437.25 315 420.75 319.5 c 0
 404.25 324 390.375 326.625 379.125 327.375 c 0
 367.875 328.125 356.25 328.5 344.25 328.5 c 2
 153 328.5 l 1
 153 117 l 1
EndSplineSet
EndChar

StartChar: C
Encoding: 67 67 68
Width: 780
Flags: W
LayerCount: 2
Fore
SplineSet
758.25 198 m 1
 750.75 183 741 167.625 729 151.875 c 0
 717 136.125 700.875 118.875 680.625 100.125 c 0
 660.375 81.375 638.25 64.875 614.25 50.625 c 0
 590.25 36.375 561 24.375 526.5 14.625 c 0
 492 4.875 456.75 0 420.75 0 c 0
 372.75 0 327.375 7.5 284.625 22.5 c 0
 241.875 37.5 205.125 57.75 174.375 83.25 c 0
 143.625 108.75 117 138.375 94.5 172.125 c 0
 72 205.875 54.75 241.5 42.75 279 c 0
 30.75 316.5 24.75 353.625 24.75 390.375 c 0
 24.75 427.125 30.75 464.25 42.75 501.75 c 0
 54.75 539.25 72 574.875 94.5 608.625 c 0
 117 642.375 143.25 672 173.25 697.5 c 0
 203.25 723 240 743.625 283.5 759.375 c 0
 327 775.125 372.75 783 420.75 783 c 0
 458.25 783 493.875 778.125 527.625 768.375 c 0
 561.375 758.625 590.625 746.625 615.375 732.375 c 0
 640.125 718.125 662.625 702 682.875 684 c 0
 703.125 666 718.875 649.125 730.125 633.375 c 0
 741.375 617.625 750.75 603 758.25 589.5 c 1
 657 528.75 l 1
 649.5 540.75 639.375 553.875 626.625 568.125 c 0
 613.875 582.375 597.75 597.375 578.25 613.125 c 0
 558.75 628.875 535.125 640.875 507.375 649.125 c 0
 479.625 657.375 450.75 661.5 420.75 661.5 c 0
 380.25 661.5 342.375 654 307.125 639 c 0
 271.875 624 242.625 603.75 219.375 578.25 c 0
 196.125 552.75 177.75 523.5 164.25 490.5 c 0
 150.75 457.5 144 424.125 144 390.375 c 0
 144 356.625 150.75 323.25 164.25 290.25 c 0
 177.75 257.25 196.5 228 220.5 202.5 c 0
 244.5 177 273.75 156.75 308.25 141.75 c 0
 342.75 126.75 380.25 119.25 420.75 119.25 c 0
 450.75 119.25 479.25 123.75 506.25 132.75 c 0
 533.25 141.75 556.875 153.75 577.125 168.75 c 0
 597.375 183.75 613.875 198.75 626.625 213.75 c 0
 639.375 228.75 649.5 242.25 657 254.25 c 1
 758.25 198 l 1
EndSplineSet
EndChar

StartChar: D
Encoding: 68 68 69
Width: 630
Flags: W
LayerCount: 2
Fore
SplineSet
22.5 783 m 1
 229.5 783 l 2
 262.5 783 296.25 777.75 330.75 767.25 c 0
 365.25 756.75 399.375 740.625 433.125 718.875 c 0
 466.875 697.125 497.25 671.25 524.25 641.25 c 0
 551.25 611.25 572.625 574.875 588.375 532.125 c 0
 604.125 489.375 612 444 612 396 c 0
 612 336 600.375 280.5 577.125 229.5 c 0
 553.875 178.5 523.875 136.5 487.125 103.5 c 0
 450.375 70.5 407.25 45 357.75 27 c 0
 308.25 9 257.25 0 204.75 0 c 2
 22.5 0 l 1
 22.5 783 l 1
245.25 661.5 m 2
 141.75 661.5 l 1
 141.75 117 l 1
 229.5 117 l 2
 246 117 265.125 119.625 286.875 124.875 c 0
 308.625 130.125 331.875 139.875 356.625 154.125 c 0
 381.375 168.375 403.5 185.625 423 205.875 c 0
 442.5 226.125 459 252.75 472.5 285.75 c 0
 486 318.75 492.75 355.5 492.75 396 c 0
 492.75 424.5 489.375 451.5 482.625 477 c 0
 475.875 502.5 466.5 523.875 454.5 541.125 c 0
 442.5 558.375 428.625 574.5 412.875 589.5 c 0
 397.125 604.5 381.375 616.125 365.625 624.375 c 0
 349.875 632.625 334.125 640.125 318.375 646.875 c 0
 302.625 653.625 288.375 657.75 275.625 659.25 c 0
 262.875 660.75 252.75 661.5 245.25 661.5 c 2
EndSplineSet
EndChar

StartChar: E
Encoding: 69 69 70
Width: 649
Flags: W
LayerCount: 2
Fore
SplineSet
618.75 783 m 1
 618.75 663.75 l 1
 150.75 663.75 l 1
 150.75 452.25 l 1
 384.75 452.25 l 1
 384.75 330.75 l 1
 150.75 330.75 l 1
 150.75 119.25 l 1
 618.75 119.25 l 1
 618.75 0 l 1
 31.5 0 l 1
 31.5 783 l 1
 618.75 783 l 1
EndSplineSet
EndChar

StartChar: F
Encoding: 70 70 71
Width: 636
Flags: W
LayerCount: 2
Fore
SplineSet
621 783 m 1
 621 666 l 1
 153 666 l 1
 153 452.25 l 1
 387 452.25 l 1
 387 333 l 1
 153 333 l 1
 153 2.25 l 1
 36 2.25 l 1
 36 783 l 1
 621 783 l 1
EndSplineSet
EndChar

StartChar: G
Encoding: 71 71 72
Width: 846
Flags: W
LayerCount: 2
Fore
SplineSet
765 587.25 m 1
 666 526.5 l 1
 646.5 556.5 621.375 583.125 590.625 606.375 c 0
 559.875 629.625 527.25 646.5 492.75 657 c 0
 444.75 669 397.5 668.625 351 655.875 c 0
 304.5 643.125 264.375 619.125 230.625 583.875 c 0
 196.875 548.625 173.625 507 160.875 459 c 0
 148.125 411 148.125 364.125 160.875 318.375 c 0
 173.625 272.625 197.625 232.5 232.875 198 c 0
 268.125 163.5 309.375 139.875 356.625 127.125 c 0
 403.875 114.375 451.125 114.75 498.375 128.25 c 0
 545.625 141.75 586.125 165.75 619.875 200.25 c 0
 653.625 234.75 676.5 276 688.5 324 c 0
 690 327 691.5 330.75 693 335.25 c 0
 694.5 339.75 694.5 342 693 342 c 2
 686.25 342 l 1
 290.25 337.5 l 1
 324 452.25 l 1
 807.75 459 l 1
 810 459 l 1
 813 451.5 814.5 429 814.5 391.5 c 0
 814.5 376.5 813 358.875 810 338.625 c 0
 807 318.375 801.75 295.5 794.25 270 c 0
 786.75 244.5 775.5 219.375 760.5 194.625 c 0
 745.5 169.875 728.625 145.875 709.875 122.625 c 0
 691.125 99.375 666.375 78.375 635.625 59.625 c 0
 604.875 40.875 570.75 26.25 533.25 15.75 c 0
 453.75 -5.25 381.375 -5.625 316.125 14.625 c 0
 250.875 34.875 194.625 69.375 147.375 118.125 c 0
 100.125 166.875 67.5 224.25 49.5 290.25 c 0
 40.5 321.75 36 353.625 36 385.875 c 0
 36 418.125 39.375 450.375 46.125 482.625 c 0
 52.875 514.875 63.75 546 78.75 576 c 0
 93.75 606 112.125 633 133.875 657 c 0
 155.625 681 182.625 703.125 214.875 723.375 c 0
 247.125 743.625 282.75 759 321.75 769.5 c 0
 354.75 778.5 387 783.375 418.5 784.125 c 0
 450 784.875 478.5 782.25 504 776.25 c 0
 529.5 770.25 554.625 761.625 579.375 750.375 c 0
 604.125 739.125 626.25 726.75 645.75 713.25 c 0
 665.25 699.75 682.875 685.125 698.625 669.375 c 0
 714.375 653.625 727.5 639 738 625.5 c 0
 748.5 612 757.5 599.25 765 587.25 c 1
EndSplineSet
EndChar

StartChar: H
Encoding: 72 72 73
Width: 652
Flags: W
LayerCount: 2
Fore
SplineSet
153 783 m 1
 153 450 l 1
 501.75 450 l 1
 501.75 783 l 1
 621 783 l 1
 621 0 l 1
 501.75 0 l 1
 501.75 330.75 l 1
 153 330.75 l 1
 153 0 l 1
 36 0 l 1
 36 783 l 1
 153 783 l 1
EndSplineSet
EndChar

StartChar: I
Encoding: 73 73 74
Width: 185
Flags: W
HStem: 0 21G<34 151> 763 20G<34 151>
VStem: 34 117<0 783>
LayerCount: 2
Fore
SplineSet
151 783 m 1
 151 0 l 1
 34 0 l 1
 34 783 l 1
 151 783 l 1
EndSplineSet
EndChar

StartChar: J
Encoding: 74 74 75
Width: 519
Flags: W
LayerCount: 2
Fore
SplineSet
371.25 281.25 m 1
 371.25 783 l 1
 486 783 l 1
 486 281.25 l 1
 486 252 l 2
 486 243 484.5 228.75 481.5 209.25 c 0
 478.5 189.75 474.375 171.375 469.125 154.125 c 0
 463.875 136.875 455.25 118.125 443.25 97.875 c 0
 431.25 77.625 417.375 61.125 401.625 48.375 c 0
 385.875 35.625 365.25 24.375 339.75 14.625 c 0
 314.25 4.875 285.375 0 253.125 0 c 0
 220.875 0 192 4.875 166.5 14.625 c 0
 141 24.375 120 37.5 103.5 54 c 0
 87 69 72.75 85.5 60.75 103.5 c 0
 50.25 123 42 142.5 36 162 c 1
 146.25 202.5 l 1
 149.25 190.5 153 180 157.5 171 c 0
 162 162 168 153.375 175.5 145.125 c 0
 183 136.875 193.5 130.125 207 124.875 c 0
 220.5 119.625 235.5 117 252 117 c 0
 330 117 369.75 170.25 371.25 276.75 c 2
 371.25 281.25 l 1
EndSplineSet
EndChar

StartChar: K
Encoding: 75 75 76
Width: 649
Flags: W
LayerCount: 2
Fore
SplineSet
36 0 m 1
 36 783 l 1
 153 783 l 1
 153 405 l 1
 153 396 l 1
 159.75 400.5 l 1
 468 783 l 1
 618.75 783 l 1
 303.75 393.75 l 1
 618.75 0 l 1
 468 0 l 1
 229.5 301.5 l 1
 153 213.75 l 1
 153 0 l 1
 36 0 l 1
EndSplineSet
EndChar

StartChar: L
Encoding: 76 76 77
Width: 657
Flags: W
LayerCount: 2
Fore
SplineSet
621 2.25 m 1
 36 2.25 l 1
 36 785.25 l 1
 155.25 785.25 l 1
 155.25 119.25 l 1
 621 119.25 l 1
 621 2.25 l 1
EndSplineSet
EndChar

StartChar: M
Encoding: 77 77 78
Width: 846
Flags: W
LayerCount: 2
Fore
SplineSet
36 783 m 1
 171 783 l 1
 425.25 396 l 1
 681.75 783 l 1
 814.5 783 l 1
 814.5 0 l 1
 697.5 0 l 1
 697.5 594 l 1
 486 272.25 l 1
 366.75 272.25 l 1
 153 594 l 1
 153 0 l 1
 36 0 l 1
 36 783 l 1
EndSplineSet
EndChar

StartChar: N
Encoding: 78 78 79
Width: 652
Flags: W
LayerCount: 2
Fore
SplineSet
153 0 m 1
 36 0 l 1
 36 780.75 l 1
 189 780.75 l 1
 504 180 l 1
 504 780.75 l 1
 621 780.75 l 1
 621 0 l 1
 468 0 l 1
 153 596.25 l 1
 153 0 l 1
EndSplineSet
EndChar

StartChar: O
Encoding: 79 79 80
Width: 847
Flags: W
LayerCount: 2
Fore
SplineSet
149 392 m 0
 149 316 176 250.833007812 230 196.5 c 0
 284 142.166992188 349 115 425 115 c 0
 501 115 566 142 620 196 c 0
 674 250 701 315 701 391 c 0
 701 467 674 532 620 586 c 0
 566 640 501 667 425 667 c 0
 349 667 284 640.166992188 230 586.5 c 0
 176 532.833007812 149 468 149 392 c 0
33 390 m 0
 33 496.666992188 71.166015625 588 147.499023438 664 c 0
 223.83203125 740 315.499023438 778 422.499023438 778 c 0
 528.83203125 778 619.999023438 740 695.999023438 664 c 0
 771.999023438 588 809.999023438 496.5 809.999023438 389.5 c 0
 809.999023438 283.166992188 771.999023438 192 695.999023438 116 c 0
 619.999023438 40 528.499023438 2 421.499023438 2 c 0
 315.166015625 2 223.833007812 40 147.5 116 c 0
 71.1669921875 192 33 283.333007812 33 390 c 0
EndSplineSet
EndChar

StartChar: P
Encoding: 80 80 81
Width: 652
Flags: W
LayerCount: 2
Fore
SplineSet
36 0 m 1
 36 783 l 1
 362.25 783 l 1
 373.5 780.75 l 2
 381 780.75 388.875 780 397.125 778.5 c 0
 405.375 777 415.875 774.75 428.625 771.75 c 0
 441.375 768.75 455.25 764.625 470.25 759.375 c 0
 485.25 754.125 499.875 747.375 514.125 739.125 c 0
 528.375 730.875 541.5 720 553.5 706.5 c 0
 565.5 693 576.75 678 587.25 661.5 c 0
 597.75 645 606 625.125 612 601.875 c 0
 618 578.625 621 553.5 621 526.5 c 0
 621 492 615.75 460.875 605.25 433.125 c 0
 594.75 405.375 582.75 382.875 569.25 365.625 c 0
 555.75 348.375 539.25 333.375 519.75 320.625 c 0
 500.25 307.875 482.25 298.5 465.75 292.5 c 0
 449.25 286.5 432 282 414 279 c 0
 396 276 384 274.125 378 273.375 c 0
 372 272.625 366.75 272.25 362.25 272.25 c 2
 153 272.25 l 1
 153 0 l 1
 36 0 l 1
153 661.5 m 1
 153 389.25 l 1
 362.25 389.25 l 2
 372.75 389.25 383.25 390.375 393.75 392.625 c 0
 404.25 394.875 416.25 398.625 429.75 403.875 c 0
 443.25 409.125 455.25 416.625 465.75 426.375 c 0
 476.25 436.125 484.875 449.625 491.625 466.875 c 0
 498.375 484.125 501.75 504.75 501.75 528.75 c 0
 501.75 552.75 498.375 573 491.625 589.5 c 0
 484.875 606 476.625 618.75 466.875 627.75 c 0
 457.125 636.75 445.125 644.625 430.875 651.375 c 0
 416.625 658.125 404.625 661.5 394.875 661.5 c 2
 362.25 661.5 l 1
 153 661.5 l 1
EndSplineSet
EndChar

StartChar: Q
Encoding: 81 81 82
Width: 847
Flags: W
LayerCount: 2
Fore
SplineSet
425.25 0 m 0
 371.25 0 320.625 10.125 273.375 30.375 c 0
 226.125 50.625 184.875 78.375 149.625 113.625 c 0
 114.375 148.875 86.625 190.5 66.375 238.5 c 0
 46.125 286.5 36 337.125 36 390.375 c 0
 36 443.625 46.125 494.25 66.375 542.25 c 0
 86.625 590.25 114.375 631.875 149.625 667.125 c 0
 184.875 702.375 226.875 730.5 275.625 751.5 c 0
 324.375 772.5 374.625 783 426.375 783 c 0
 478.125 783 528.375 772.5 577.125 751.5 c 0
 625.875 730.5 667.875 702.375 703.125 667.125 c 0
 738.375 631.875 766.125 590.25 786.375 542.25 c 0
 806.625 494.25 816.75 444 816.75 391.5 c 0
 816.75 295.5 786 210.75 724.5 137.25 c 1
 816.75 112.5 l 1
 785.25 0 l 1
 612 47.25 l 1
 553.5 15.75 491.25 0 425.25 0 c 0
425.25 117 m 0
 474.75 117 520.875 129.375 563.625 154.125 c 0
 606.375 178.875 639.75 212.25 663.75 254.25 c 0
 687.75 296.25 699.75 342 699.75 391.5 c 0
 699.75 441 687.75 486.375 663.75 527.625 c 0
 639.75 568.875 606.375 601.875 563.625 626.625 c 0
 520.875 651.375 474.75 663.75 425.25 663.75 c 0
 375.75 663.75 330 651.375 288 626.625 c 0
 246 601.875 213 568.875 189 527.625 c 0
 165 486.375 153 441 153 391.5 c 0
 153 342 165 296.25 189 254.25 c 0
 213 212.25 246 178.875 288 154.125 c 0
 330 129.375 375.75 117 425.25 117 c 0
EndSplineSet
EndChar

StartChar: R
Encoding: 82 82 83
Width: 631
Flags: W
LayerCount: 2
Fore
SplineSet
36 783 m 1
 342 783 l 1
 351 780.75 l 2
 358.5 780.75 369 779.25 382.5 776.25 c 0
 396 773.25 411 769.5 427.5 765 c 0
 444 760.5 459.75 752.25 474.75 740.25 c 0
 489.75 728.25 504 714.75 517.5 699.75 c 0
 531 684.75 541.875 664.875 550.125 640.125 c 0
 558.375 615.375 562.5 587.25 562.5 555.75 c 0
 562.5 524.25 558.375 495.75 550.125 470.25 c 0
 541.875 444.75 530.25 424.125 515.25 408.375 c 0
 500.25 392.625 484.875 379.875 469.125 370.125 c 0
 453.375 360.375 437.25 353.25 420.75 348.75 c 1
 618.75 0 l 1
 486 0 l 1
 294.75 333 l 1
 153 333 l 1
 153 0 l 1
 36 0 l 1
 36 783 l 1
153 447.75 m 1
 342 447.75 l 1
 351 450 l 2
 358.5 450 367.5 452.25 378 456.75 c 0
 388.5 461.25 398.25 466.5 407.25 472.5 c 0
 416.25 478.5 424.875 488.625 433.125 502.875 c 0
 441.375 517.125 445.5 534.375 445.5 554.625 c 0
 445.5 574.875 441.375 592.5 433.125 607.5 c 0
 424.875 622.5 416.625 633 408.375 639 c 0
 400.125 645 389.625 650.25 376.875 654.75 c 0
 364.125 659.25 355.5 661.5 351 661.5 c 2
 342 661.5 l 1
 153 661.5 l 1
 153 447.75 l 1
EndSplineSet
EndChar

StartChar: S
Encoding: 83 83 84
Width: 618
Flags: W
LayerCount: 2
Fore
SplineSet
479.25 555.75 m 1
 476.25 566.25 471 577.125 463.5 588.375 c 0
 456 599.625 445.875 611.25 433.125 623.25 c 0
 420.375 635.25 403.125 645 381.375 652.5 c 0
 359.625 660 336.375 663.75 311.625 663.75 c 0
 286.875 663.75 264.75 660 245.25 652.5 c 0
 225.75 645 210.75 636 200.25 625.5 c 0
 189.75 615 182.625 604.125 178.875 592.875 c 0
 175.125 581.625 173.25 572.25 173.25 564.75 c 0
 170.25 539.25 178.875 518.625 199.125 502.875 c 0
 219.375 485.625 256.5 474 310.5 468 c 0
 336 463.5 360.75 458.625 384.75 453.375 c 0
 408.75 448.125 434.625 439.125 462.375 426.375 c 0
 490.125 413.625 513.75 399 533.25 382.5 c 0
 552.75 366 568.875 344.25 581.625 317.25 c 0
 594.375 290.25 600.75 259.5 600.75 225 c 0
 602.25 208.5 600.75 191.25 596.25 173.25 c 0
 591.75 155.25 582.75 135.75 569.25 114.75 c 0
 555.75 93.75 538.875 75 518.625 58.5 c 0
 498.375 42 470.25 28.125 434.25 16.875 c 0
 398.25 5.625 357.75 0 312.75 0 c 0
 267.75 0 226.5 6.375 189 19.125 c 0
 151.5 31.875 122.25 48.375 101.25 68.625 c 0
 80.25 88.875 63 111.75 49.5 137.25 c 0
 36 162.75 26.25 186.75 20.25 209.25 c 0
 14.25 231.75 12 252.75 13.5 272.25 c 1
 132.75 272.25 l 1
 132.75 261.75 133.875 250.125 136.125 237.375 c 0
 138.375 224.625 143.625 210.75 151.875 195.75 c 0
 160.125 180.75 171 167.625 184.5 156.375 c 0
 198 145.125 215.625 135.75 237.375 128.25 c 0
 259.125 120.75 283.5 117 310.5 117 c 0
 367.5 117 410.625 126.375 439.875 145.125 c 0
 469.125 163.875 483.75 190.5 483.75 225 c 0
 483.75 258 467.625 285.75 435.375 308.25 c 0
 403.125 330.75 361.5 344.25 310.5 348.75 c 0
 292.5 351.75 277.5 354.375 265.5 356.625 c 0
 253.5 358.875 237.75 362.25 218.25 366.75 c 0
 198.75 371.25 182.25 376.875 168.75 383.625 c 0
 155.25 390.375 140.625 398.625 124.875 408.375 c 0
 109.125 418.125 96.75 430.125 87.75 444.375 c 0
 78.75 458.625 71.25 475.5 65.25 495 c 0
 59.25 514.5 56.25 537.75 56.25 564.75 c 0
 56.25 581.25 58.125 597.75 61.875 614.25 c 0
 65.625 630.75 74.25 649.5 87.75 670.5 c 0
 101.25 691.5 117 709.875 135 725.625 c 0
 153 741.375 177.375 754.875 208.125 766.125 c 0
 238.875 777.375 273 783 310.5 783 c 0
 343.5 783 375.375 778.125 406.125 768.375 c 0
 436.875 758.625 463.125 746.25 484.875 731.25 c 0
 506.625 716.25 525.375 700.125 541.125 682.875 c 0
 556.875 665.625 568.875 648.75 577.125 632.25 c 0
 585.375 615.75 590.25 600.75 591.75 587.25 c 1
 479.25 555.75 l 1
EndSplineSet
EndChar

StartChar: T
Encoding: 84 84 85
Width: 600
Flags: W
LayerCount: 2
Fore
SplineSet
591.75 663.75 m 1
 360 663.75 l 1
 360 0 l 1
 240.75 0 l 1
 240.75 663.75 l 1
 6.75 663.75 l 1
 6.75 783 l 1
 591.75 783 l 1
 591.75 663.75 l 1
EndSplineSet
EndChar

StartChar: U
Encoding: 85 85 86
Width: 654
Flags: W
LayerCount: 2
Fore
SplineSet
153 783 m 1
 153 292.5 l 2
 153 279 154.125 265.125 156.375 250.875 c 0
 158.625 236.625 163.875 221.25 172.125 204.75 c 0
 180.375 188.25 190.875 173.625 203.625 160.875 c 0
 216.375 148.125 233.625 137.25 255.375 128.25 c 0
 277.125 119.25 301.875 114.75 329.625 114.75 c 0
 357.375 114.75 382.125 119.625 403.875 129.375 c 0
 425.625 139.125 442.5 150.375 454.5 163.125 c 0
 466.5 175.875 476.625 190.875 484.875 208.125 c 0
 493.125 225.375 498.375 241.125 500.625 255.375 c 0
 502.875 269.625 504 282 504 292.5 c 2
 504 783 l 1
 621 783 l 1
 621 292.5 l 2
 621 277.5 619.875 261.75 617.625 245.25 c 0
 615.375 228.75 611.25 210.75 605.25 191.25 c 0
 599.25 171.75 591 153 580.5 135 c 0
 570 117 556.875 100.125 541.125 84.375 c 0
 525.375 68.625 507.75 54.375 488.25 41.625 c 0
 468.75 28.875 445.125 19.125 417.375 12.375 c 0
 389.625 5.625 360 2.25 328.5 2.25 c 0
 283.5 2.25 243.75 8.625 209.25 21.375 c 0
 174.75 34.125 146.625 51 124.875 72 c 0
 103.125 93 85.5 116.625 72 142.875 c 0
 58.5 169.125 49.125 194.625 43.875 219.375 c 0
 38.625 244.125 36 268.5 36 292.5 c 2
 36 783 l 1
 153 783 l 1
EndSplineSet
EndChar

StartChar: V
Encoding: 86 86 87
Width: 769
Flags: W
LayerCount: 2
Fore
SplineSet
159.75 783 m 1
 389.25 132.75 l 1
 614.25 783 l 1
 738 783 l 1
 468 0 l 1
 308.25 0 l 1
 36 783 l 1
 159.75 783 l 1
EndSplineSet
EndChar

StartChar: W
Encoding: 87 87 88
Width: 1003
Flags: W
LayerCount: 2
Fore
SplineSet
229.5 2.25 m 1
 36 783 l 1
 157.5 783 l 1
 297 213.75 l 2
 298.5 206.25 299.625 202.875 300.375 203.625 c 0
 301.125 204.375 301.5 207.75 301.5 213.75 c 2
 441 783 l 1
 567 783 l 1
 708.75 213.75 l 1
 708.75 204.75 l 1
 711 213.75 l 1
 850.5 783 l 1
 972 783 l 1
 783 2.25 l 1
 636.75 2.25 l 1
 506.25 531 l 2
 504.75 537 504 539.625 504 538.875 c 0
 504 538.125 503.25 535.5 501.75 531 c 2
 373.5 2.25 l 1
 229.5 2.25 l 1
EndSplineSet
EndChar

StartChar: X
Encoding: 88 88 89
Width: 652
Flags: W
LayerCount: 2
Fore
SplineSet
258.75 391.5 m 1
 36 783 l 1
 173.25 783 l 1
 328.5 510.75 l 1
 483.75 783 l 1
 621 783 l 1
 396 391.5 l 1
 621 2.25 l 1
 483.75 2.25 l 1
 328.5 272.25 l 1
 173.25 2.25 l 1
 36 2.25 l 1
 258.75 391.5 l 1
EndSplineSet
EndChar

StartChar: Y
Encoding: 89 89 90
Width: 652
Flags: W
LayerCount: 2
Fore
SplineSet
171 783 m 1
 328.5 515.25 l 1
 486 783 l 1
 621 783 l 1
 387 382.5 l 1
 387 0 l 1
 270 0 l 1
 270 382.5 l 1
 36 783 l 1
 171 783 l 1
EndSplineSet
EndChar

StartChar: Z
Encoding: 90 90 91
Width: 652
Flags: W
LayerCount: 2
Fore
SplineSet
621 783 m 1
 238.5 117 l 1
 621 117 l 1
 621 0 l 1
 36 0 l 1
 416.25 661.5 l 1
 36 661.5 l 1
 36 783 l 1
 621 783 l 1
EndSplineSet
EndChar

StartChar: asciicircum
Encoding: 94 94 95
Width: 458
Flags: HW
LayerCount: 2
Fore
SplineSet
307.921875 780.114257812 m 5
 180.872070312 780.114257812 l 4
 148.34765625 780.114257812 l 5
 34 448.25390625 l 5
 159.61328125 448.25390625 l 5
 227.88671875 646.974609375 l 5
 297.794921875 448.25390625 l 5
 424.438476562 448.25390625 l 5
 307.921875 780.114257812 l 5
EndSplineSet
EndChar

StartChar: a
Encoding: 97 97 98
Width: 666
Flags: W
LayerCount: 2
Fore
SplineSet
630 587.25 m 1
 630 0 l 1
 519.75 0 l 1
 519.75 60.75 l 1
 519.75 67.5 l 1
 517.5 65.25 l 2
 471 21.75 408.75 0 330.75 0 c 0
 258.75 0 191.625 26.625 129.375 79.875 c 0
 67.125 133.125 36 205.5 36 297 c 0
 36 390 66.75 462.375 128.25 514.125 c 0
 189.75 565.875 257.25 591.75 330.75 591.75 c 0
 414.75 591.75 477 571.5 517.5 531 c 0
 519 529.5 519.75 530.25 519.75 533.25 c 2
 519.75 587.25 l 1
 630 587.25 l 1
330.75 108 m 0
 383.25 108 428.25 126.375 465.75 163.125 c 0
 503.25 199.875 522 244.125 522 295.875 c 0
 522 347.625 503.25 392.625 465.75 430.875 c 0
 428.25 469.125 383.25 488.25 330.75 488.25 c 0
 278.25 488.25 233.25 469.125 195.75 430.875 c 0
 158.25 392.625 139.5 347.625 139.5 295.875 c 0
 139.5 244.125 158.25 199.875 195.75 163.125 c 0
 233.25 126.375 278.25 108 330.75 108 c 0
EndSplineSet
EndChar

StartChar: b
Encoding: 98 98 99
Width: 663
Flags: W
LayerCount: 2
Fore
SplineSet
36 780.75 m 1
 144 780.75 l 1
 144 535.5 l 2
 144 529.5 144.375 526.5 145.125 526.5 c 0
 145.875 526.5 147.75 528 150.75 531 c 0
 200.25 571.5 261.75 592.5 335.25 594 c 0
 404.25 594 465.375 573 518.625 531 c 0
 571.875 489 606 435 621 369 c 0
 628.5 345 632.25 321 632.25 297 c 0
 632.25 214.5 603.375 144.375 545.625 86.625 c 0
 487.875 28.875 417.75 0 335.25 0 c 0
 263.25 0 202.5 20.25 153 60.75 c 0
 147 65.25 144 64.5 144 58.5 c 2
 144 0 l 1
 36 0 l 1
 36 780.75 l 1
334.125 108 m 0
 387.375 108 432.375 126.375 469.125 163.125 c 0
 505.875 199.875 524.25 244.5 524.25 297 c 0
 524.25 349.5 505.875 395.25 469.125 434.25 c 0
 432.375 473.25 387.375 492.75 334.125 492.75 c 0
 280.875 492.75 235.5 473.25 198 434.25 c 0
 160.5 395.25 141.75 349.5 141.75 297 c 0
 141.75 244.5 160.5 199.875 198 163.125 c 0
 235.5 126.375 280.875 108 334.125 108 c 0
EndSplineSet
EndChar

StartChar: c
Encoding: 99 99 100
Width: 616
Flags: W
LayerCount: 2
Fore
SplineSet
589.5 150.75 m 1
 573 116.25 542.25 82.5 497.25 49.5 c 0
 452.25 16.5 396.75 0 330.75 0 c 0
 242.25 0 171 30 117 90 c 0
 63 150 36 218.25 36 294.75 c 0
 36 371.25 63.375 439.875 118.125 500.625 c 0
 172.875 561.375 243.75 591.75 330.75 591.75 c 0
 396.75 591.75 452.25 576 497.25 544.5 c 0
 542.25 513 573 480 589.5 445.5 c 1
 492.75 393.75 l 1
 452.25 456.75 398.25 487.5 330.75 486 c 0
 281.25 486 237 468.375 198 433.125 c 0
 159 397.875 139.5 352.125 139.5 295.875 c 0
 139.5 239.625 159 194.25 198 159.75 c 0
 237 125.25 281.25 108 330.75 108 c 0
 395.25 108 450 140.25 495 204.75 c 1
 589.5 150.75 l 1
EndSplineSet
EndChar

StartChar: d
Encoding: 100 100 101
Width: 663
Flags: W
LayerCount: 2
Fore
SplineSet
625.5 783 m 1
 625.5 2.25 l 1
 517.5 2.25 l 1
 517.5 60.75 l 1
 517.5 68.625 l 2
 517.5 69.375 516 68.25 513 65.25 c 0
 463.5 23.25 402 2.25 328.5 2.25 c 0
 246 2.25 175.5 31.125 117 88.875 c 0
 58.5 146.625 29.25 216.375 29.25 298.125 c 0
 29.25 379.875 58.5 450 117 508.5 c 0
 175.5 567 246 596.25 328.5 596.25 c 0
 400.5 596.25 462 574.5 513 531 c 0
 516 528 517.5 526.875 517.5 527.625 c 2
 517.5 537.75 l 1
 517.5 783 l 1
 625.5 783 l 1
327.375 108 m 0
 380.625 108 425.625 126.375 462.375 163.125 c 0
 499.125 199.875 517.5 244.875 517.5 298.125 c 0
 517.5 351.375 499.125 397.125 462.375 435.375 c 0
 425.625 473.625 380.625 492.75 327.375 492.75 c 0
 274.125 492.75 228.75 473.625 191.25 435.375 c 0
 153.75 397.125 135 351.375 135 298.125 c 0
 135 244.875 153.75 199.875 191.25 163.125 c 0
 228.75 126.375 274.125 108 327.375 108 c 0
EndSplineSet
EndChar

StartChar: e
Encoding: 101 101 102
Width: 664
Flags: W
LayerCount: 2
Fore
SplineSet
514.5 245.25 m 1
 615.75 218.25 l 1
 611.25 198.75 602.625 177.75 589.875 155.25 c 0
 577.125 132.75 559.875 109.5 538.125 85.5 c 0
 516.375 61.5 487.5 41.25 451.5 24.75 c 0
 415.5 8.25 375 0 330 0 c 0
 241.5 0 170.625 29.625 117.375 88.875 c 0
 64.125 148.125 37.5 217.5 37.5 297 c 0
 37.5 375 64.5 443.25 118.5 501.75 c 0
 172.5 560.25 243 589.5 330 589.5 c 0
 372 589.5 411.75 581.625 449.25 565.875 c 0
 486.75 550.125 516.375 529.875 538.125 505.125 c 0
 559.875 480.375 577.5 457.125 591 435.375 c 0
 604.5 413.625 612.75 393 615.75 373.5 c 0
 623.25 345 627 328.5 627 324 c 1
 624.75 324 l 1
 174.75 204.75 l 2
 168.75 203.25 168 199.5 172.5 193.5 c 0
 211.5 135 264 106.5 330 108 c 0
 372 108 409.5 120.375 442.5 145.125 c 0
 475.5 169.875 499.5 203.25 514.5 245.25 c 1
147.75 342 m 2
 144.375 331.875 l 2
 143.625 329.625 142.875 326.625 142.125 322.875 c 0
 141.375 319.125 141 315.75 141 312.75 c 0
 141 308.25 141.345703125 305.309570312 142.036132812 303.928710938 c 0
 142.845703125 302.309570312 145.5 302.25 150 303.75 c 2
 487.5 396 l 1
 487.5 396 l 1
 489.75 396 l 2
 491.25 396 490.5 398.25 487.5 402.75 c 0
 462 438.75 426 464.25 379.5 479.25 c 0
 366 483.75 350.25 486 332.25 486 c 0
 291.75 486 254.528320312 472.958984375 220.583984375 446.877929688 c 0
 187.028320312 420.458984375 162.75 385.5 147.75 342 c 2
EndSplineSet
EndChar

StartChar: f
Encoding: 102 102 103
Width: 464
Flags: W
HStem: 0 21G<92.4065 200.5> 481.5 108<63.25 90.25 200.5 400.75> 771.75 103.5<217.249 327.115>
VStem: 90.25 110.25<0 481.5 589.5 754.655>
LayerCount: 2
Fore
SplineSet
200.5 0 m 1
 92.5 0 l 1
 90.25 481.5 l 1
 34 481.5 l 1
 63.25 589.5 l 1
 90.25 589.5 l 1
 90.25 661.5 l 2
 90.25 690 94 717.375 101.5 743.625 c 0
 109 769.875 123.25 795.375 144.25 820.125 c 0
 168.25 847.875 196 864.75 227.5 870.75 c 0
 244 873.75 259.75 875.25 274.75 875.25 c 0
 315.25 875.25 348.625 865.125 374.875 844.875 c 0
 401.125 824.625 419.5 804 430 783 c 1
 328.75 747 l 1
 318.25 763.5 300.25 771.75 274.75 771.75 c 0
 259.75 771.75 249.25 770.25 243.25 767.25 c 0
 214.75 756.75 200.5 733.5 200.5 697.5 c 2
 200.5 589.5 l 1
 430 589.5 l 1
 400.75 481.5 l 1
 200.5 481.5 l 1
 200.5 0 l 1
EndSplineSet
EndChar

StartChar: g
Encoding: 103 103 104
Width: 666
Flags: W
LayerCount: 2
Fore
SplineSet
522 582.75 m 1
 630 582.75 l 1
 630 67.5 l 1
 630 60.75 l 2
 630 35.25 627.375 8.625 622.125 -19.125 c 0
 616.875 -46.875 607.125 -76.5 592.875 -108 c 0
 578.625 -139.5 561.375 -167.25 541.125 -191.25 c 0
 520.875 -215.25 492.75 -235.5 456.75 -252 c 0
 420.75 -268.5 380.25 -276.75 335.25 -276.75 c 0
 251.25 -276.75 185.625 -256.875 138.375 -217.125 c 0
 91.125 -177.375 60 -130.5 45 -76.5 c 1
 150.75 -49.5 l 1
 177.75 -130.5 239.25 -170.25 335.25 -168.75 c 0
 381.75 -168.75 420 -154.5 450 -126 c 0
 480 -97.5 499.5 -67.875 508.5 -37.125 c 0
 517.5 -6.375 522 24.75 522 56.25 c 2
 522 67.5 l 1
 517.5 63 l 2
 475.5 21 414.75 0 335.25 0 c 0
 263.25 0 195.375 26.625 131.625 79.875 c 0
 67.875 133.125 36 205.5 36 297 c 0
 36 390 66.375 462.375 127.125 514.125 c 0
 187.875 565.875 257.25 591.75 335.25 591.75 c 0
 380.25 591.75 418.875 585 451.125 571.5 c 0
 483.375 558 505.5 543.75 517.5 528.75 c 2
 522 522 l 1
 522 531 l 1
 522 582.75 l 1
330.75 108 m 0
 383.25 108 428.25 126.375 465.75 163.125 c 0
 503.25 199.875 522 244.125 522 295.875 c 0
 522 347.625 503.25 392.625 465.75 430.875 c 0
 428.25 469.125 383.25 488.25 330.75 488.25 c 0
 278.25 488.25 233.25 469.125 195.75 430.875 c 0
 158.25 392.625 139.5 347.625 139.5 295.875 c 0
 139.5 244.125 158.25 199.875 195.75 163.125 c 0
 233.25 126.375 278.25 108 330.75 108 c 0
EndSplineSet
EndChar

StartChar: h
Encoding: 104 104 105
Width: 537
Flags: HW
LayerCount: 2
Fore
SplineSet
36 0 m 1
 36 774 l 1
 144 774 l 1
 144 560.25 l 2
 144 554.25 146.25 552.75 150.75 555.75 c 0
 185.25 575.25 225 585 270 585 c 0
 325.5 585 372 570 409.5 540 c 0
 447 510 471.375 478.5 482.625 445.5 c 0
 493.875 412.5 500.25 380.25 501.75 348.75 c 2
 501.75 0 l 1
 393.75 0 l 1
 393.75 348.75 l 2
 393.75 368.25 391.875 386.25 388.125 402.75 c 0
 384.375 419.25 372.375 436.125 352.125 453.375 c 0
 331.875 470.625 304.5 479.25 270 479.25 c 0
 244.5 479.25 222.75 474.75 204.75 465.75 c 0
 186.75 456.75 173.625 444.75 165.375 429.75 c 0
 157.125 414.75 151.5 401.25 148.5 389.25 c 0
 145.5 377.25 144 363.75 144 348.75 c 2
 144 0 l 1
 36 0 l 1
EndSplineSet
EndChar

StartChar: i
Encoding: 105 105 106
Width: 180
Flags: W
HStem: 677.25 105.75<46.0014 133.284>
VStem: 36 108<-2.25 578.25 688.463 771.787>
LayerCount: 2
Fore
SplineSet
144 730.125 m 0
 144 715.875 138.375 703.5 127.125 693 c 0
 115.875 682.5 103.125 677.25 88.875 677.25 c 0
 74.625 677.25 62.25 682.5 51.75 693 c 0
 41.25 703.5 36 715.875 36 730.125 c 0
 36 744.375 41.25 756.75 51.75 767.25 c 0
 62.25 777.75 74.625 783 88.875 783 c 0
 103.125 783 115.875 777.75 127.125 767.25 c 0
 138.375 756.75 144 744.375 144 730.125 c 0
144 578.25 m 1
 144 -2.25 l 1
 38.25 -2.25 l 1
 38.25 578.25 l 1
 144 578.25 l 1
EndSplineSet
EndChar

StartChar: j
Encoding: 106 106 107
Width: 177
Flags: W
LayerCount: 2
Fore
SplineSet
38.25 578.25 m 1
 141.75 578.25 l 1
 141.75 108 l 1
 141.75 -27 l 2
 141.75 -91.5 133.875 -140.625 118.125 -174.375 c 0
 102.375 -208.125 67.5 -230.25 13.5 -240.75 c 0
 -1.5 -243.75 -15.75 -245.25 -29.25 -245.25 c 0
 -66.75 -245.25 -98.25 -236.25 -123.75 -218.25 c 0
 -149.25 -200.25 -167.25 -180.75 -177.75 -159.75 c 1
 -83.25 -123.75 l 1
 -72.75 -138.75 -55.5 -146.25 -31.5 -146.25 c 0
 -21 -146.25 -12 -144 -4.5 -139.5 c 0
 24 -129 39 -109.5 40.5 -81 c 2
 38.25 578.25 l 1
144 730.125 m 0
 144 715.875 138.75 703.5 128.25 693 c 0
 117.75 682.5 105.375 677.25 91.125 677.25 c 0
 76.875 677.25 64.125 682.5 52.875 693 c 0
 41.625 703.5 36 715.875 36 730.125 c 0
 36 744.375 41.625 756.75 52.875 767.25 c 0
 64.125 777.75 76.875 783 91.125 783 c 0
 105.375 783 117.75 777.75 128.25 767.25 c 0
 138.75 756.75 144 744.375 144 730.125 c 0
EndSplineSet
EndChar

StartChar: k
Encoding: 107 107 108
Width: 499
Flags: W
LayerCount: 2
Fore
SplineSet
38.25 2.25 m 1
 38.25 783 l 1
 144 783 l 1
 144 393.75 l 2
 144 384.75 147 383.25 153 389.25 c 2
 310.5 580.5 l 1
 447.75 580.5 l 1
 276.75 371.25 l 1
 506.25 2.25 l 1
 380.25 2.25 l 1
 209.25 276.75 l 1
 209.25 276.75 l 1
 206.25 281.25 203.25 282 200.25 279 c 2
 198 276.75 l 1
 146.25 216 l 1
 146.25 2.25 l 1
 38.25 2.25 l 1
EndSplineSet
EndChar

StartChar: l
Encoding: 108 108 109
Width: 193
Flags: W
HStem: 0 21G<37 156.25> 763 20G<37 156.25>
VStem: 37 119.25<0 783>
LayerCount: 2
Fore
SplineSet
156.25 783 m 1
 156.25 0 l 1
 37 0 l 1
 37 783 l 1
 156.25 783 l 1
EndSplineSet
EndChar

StartChar: m
Encoding: 109 109 110
Width: 908
Flags: W
LayerCount: 2
Fore
SplineSet
158.876953125 0 m 1
 44.126953125 0 l 1
 44.126953125 362.25 l 2
 44.126953125 428.25 66.251953125 483 110.501953125 526.5 c 0
 154.751953125 570 210.626953125 591.75 278.126953125 591.75 c 0
 318.626953125 591.75 353.501953125 585.75 382.751953125 573.75 c 0
 415.001953125 561.75 435.626953125 549.75 444.626953125 537.75 c 2
 460.376953125 517.5 l 1
 464.876953125 523.5 470.876953125 530.25 478.376953125 537.75 c 0
 485.876953125 545.25 504.251953125 556.125 533.501953125 570.375 c 0
 562.751953125 584.625 597.626953125 591.75 638.126953125 591.75 c 0
 710.126953125 591.75 767.126953125 571.875 809.126953125 532.125 c 0
 851.126953125 492.375 872.126953125 435.75 872.126953125 362.25 c 2
 872.126953125 0 l 1
 759.626953125 0 l 1
 759.626953125 362.25 l 1
 758.501953125 373.5 l 2
 757.751953125 381 755.126953125 391.5 750.626953125 405 c 0
 746.126953125 418.5 740.126953125 430.875 732.626953125 442.125 c 0
 725.126953125 453.375 713.126953125 463.5 696.626953125 472.5 c 0
 680.126953125 481.5 660.626953125 486 638.126953125 486 c 0
 615.626953125 486 596.126953125 481.5 579.626953125 472.5 c 0
 563.126953125 463.5 551.126953125 453.75 543.626953125 443.25 c 0
 536.126953125 432.75 530.126953125 420.75 525.626953125 407.25 c 0
 521.126953125 393.75 518.501953125 384 517.751953125 378 c 0
 517.001953125 372 516.626953125 366.75 516.626953125 362.25 c 2
 516.626953125 0 l 1
 404.126953125 0 l 1
 404.126953125 362.25 l 1
 403.001953125 374.625 l 2
 402.251953125 382.875 399.251953125 393.75 394.001953125 407.25 c 0
 388.751953125 420.75 382.376953125 432.75 374.876953125 443.25 c 0
 367.376953125 453.75 355.001953125 463.5 337.751953125 472.5 c 0
 320.501953125 481.5 300.626953125 486 278.126953125 486 c 0
 254.126953125 486 233.876953125 481.5 217.376953125 472.5 c 0
 200.876953125 463.5 188.876953125 453 181.376953125 441 c 0
 173.876953125 429 168.251953125 417 164.501953125 405 c 0
 160.751953125 393 158.876953125 382.5 158.876953125 373.5 c 2
 158.876953125 362.25 l 1
 158.876953125 0 l 1
EndSplineSet
EndChar

StartChar: n
Encoding: 110 110 111
Width: 532
Flags: W
LayerCount: 2
Fore
SplineSet
501.83984375 360.1796875 m 2
 501.83984375 -0.1796875 l 1
 387.1796875 -0.1796875 l 1
 387.1796875 360.1796875 l 2
 387.059570312 444.059570312 346.5 486.1796875 265.5 486.540039062 c 0
 229.5 486.1796875 203.107421875 480.3671875 186.323242188 469.102539062 c 0
 170.107421875 457.8671875 158.25 440.999023438 150.75 418.499023438 c 0
 146.129882812 401.55859375 143.8203125 382.118164062 143.8203125 360.178710938 c 2
 143.8203125 -0.1806640625 l 1
 29.16015625 -0.1806640625 l 1
 29.16015625 360.178710938 l 2
 29.2197265625 378.05859375 31.125 396.374023438 34.875 415.124023438 c 0
 38.625 433.874023438 47.25 457.499023438 60.75 485.999023438 c 0
 78.75 521.999023438 104.879882812 548.69921875 139.139648438 566.098632812 c 0
 173.879882812 584.69921875 216 594.059570312 265.5 594.1796875 c 0
 307.5 594.059570312 343.770507812 587.0390625 374.310546875 573.118164062 c 0
 405.270507812 558.5390625 428.280273438 542.159179688 443.33984375 523.978515625 c 0
 458.280273438 504.659179688 470.759765625 483.209960938 480.779296875 459.630859375 c 0
 490.259765625 435.209960938 496.110351562 415.319335938 498.331054688 399.958984375 c 0
 500.610351562 383.819335938 501.780273438 370.559570312 501.83984375 360.1796875 c 2
EndSplineSet
EndChar

StartChar: o
Encoding: 111 111 112
Width: 645
Flags: W
LayerCount: 2
Fore
SplineSet
614.25 298.125 m 0
 614.25 216.375 585.375 146.25 527.625 87.75 c 0
 469.875 29.25 399.75 0 317.25 0 c 0
 234.75 0 164.25 29.25 105.75 87.75 c 0
 47.25 146.25 18 216.375 18 298.125 c 0
 18 379.875 47.25 450 105.75 508.5 c 0
 164.25 567 234.75 596.25 317.25 596.25 c 0
 399.75 596.25 469.875 567 527.625 508.5 c 0
 585.375 450 614.25 379.875 614.25 298.125 c 0
317.25 108 m 0
 369.75 108 414.75 126.75 452.25 164.25 c 0
 489.75 201.75 508.5 246.375 508.5 298.125 c 0
 508.5 349.875 489.75 394.875 452.25 433.125 c 0
 414.75 471.375 369.75 490.5 317.25 490.5 c 0
 264.75 490.5 219.75 471.375 182.25 433.125 c 0
 144.75 394.875 126 349.875 126 298.125 c 0
 126 246.375 144.75 201.75 182.25 164.25 c 0
 219.75 126.75 264.75 108 317.25 108 c 0
EndSplineSet
EndChar

StartChar: p
Encoding: 112 112 113
Width: 675
Flags: W
LayerCount: 2
Fore
SplineSet
150.75 580.5 m 1
 150.75 531 l 2
 150.75 523.5 152.25 522 155.25 526.5 c 0
 167.25 541.5 189.375 555.75 221.625 569.25 c 0
 253.875 582.75 292.5 589.5 337.5 589.5 c 0
 414 589.5 483 563.625 544.5 511.875 c 0
 606 460.125 636.75 388.5 636.75 297 c 0
 636.75 205.5 604.875 133.125 541.125 79.875 c 0
 477.375 26.625 409.5 0 337.5 0 c 0
 262.5 0 202.5 21 157.5 63 c 0
 153 67.5 150.75 66.75 150.75 60.75 c 2
 150.75 -270 l 1
 45 -270 l 1
 45 580.5 l 1
 112.5 580.5 l 1
 150.75 580.5 l 1
342 108 m 0
 394.5 108 439.5 126 477 162 c 0
 514.5 198 533.25 242.25 533.25 294.75 c 0
 533.25 347.25 514.5 392.25 477 429.75 c 0
 439.5 467.25 394.5 486 342 486 c 0
 289.5 486 244.5 467.25 207 429.75 c 0
 169.5 392.25 150.75 347.25 150.75 294.75 c 0
 150.75 242.25 169.5 198 207 162 c 0
 244.5 126 289.5 108 342 108 c 0
EndSplineSet
EndChar

StartChar: q
Encoding: 113 113 114
Width: 675
Flags: W
LayerCount: 2
Fore
SplineSet
528.75 580.5 m 1
 634.5 580.5 l 1
 634.5 -274.5 l 1
 528.75 -274.5 l 1
 528.75 60.75 l 2
 528.75 68.25 526.5 69 522 63 c 0
 477 21 417 0 342 0 c 0
 270 0 201.75 26.25 137.25 78.75 c 0
 72.75 131.25 40.5 204 40.5 297 c 0
 40.5 390 71.25 462 132.75 513 c 0
 194.25 564 264 589.5 342 589.5 c 0
 387 589.5 425.25 583.125 456.75 570.375 c 0
 488.25 557.625 510.75 543 524.25 526.5 c 0
 527.25 523.5 528.75 522.375 528.75 523.125 c 2
 528.75 531 l 1
 528.75 580.5 l 1
337.5 108 m 0
 391.5 108 436.875 126 473.625 162 c 0
 510.375 198 528.75 242.25 528.75 294.75 c 0
 528.75 347.25 510.375 392.25 473.625 429.75 c 0
 436.875 467.25 391.5 486 337.5 486 c 0
 283.5 486 238.125 467.25 201.375 429.75 c 0
 164.625 392.25 146.25 347.25 146.25 294.75 c 0
 146.25 242.25 164.625 198 201.375 162 c 0
 238.125 126 283.5 108 337.5 108 c 0
EndSplineSet
EndChar

StartChar: r
Encoding: 114 114 115
Width: 337
Flags: W
LayerCount: 2
Fore
SplineSet
38.25 0 m 1
 38.25 357.75 l 1
 38.25 587.25 l 1
 153 587.25 l 1
 153 564.75 l 1
 186 584.25 226.5 594 274.5 594 c 0
 303 594 329.25 591 353.25 585 c 1
 317.25 479.25 l 1
 305.25 482.25 291 484.5 274.5 486 c 0
 193.5 486 153 443.25 153 357.75 c 2
 153 0 l 1
 38.25 0 l 1
EndSplineSet
EndChar

StartChar: s
Encoding: 115 115 116
Width: 477
Flags: W
LayerCount: 2
Fore
SplineSet
240.974609375 591.1875 m 0
 298.724609375 591.1875 344.666015625 574.908203125 378.791015625 542.358398438 c 0
 412.916015625 509.80859375 434.178710938 476.733398438 442.579101562 443.133789062 c 1
 343.353515625 414.783203125 l 1
 327.603515625 460.983398438 293.478515625 484.083984375 240.978515625 484.083984375 c 0
 208.428710938 484.083984375 185.591796875 476.733398438 172.466796875 462.033203125 c 0
 159.341796875 447.333007812 152.779296875 431.05859375 152.779296875 413.208984375 c 0
 152.779296875 390.108398438 176.404296875 374.358398438 223.654296875 365.958984375 c 2
 233.103515625 364.383789062 l 2
 276.153320312 358.083984375 312.903320312 347.321289062 343.353515625 332.095703125 c 0
 373.803710938 316.87109375 395.591796875 302.43359375 408.716796875 288.783203125 c 0
 421.841796875 275.133789062 431.553710938 259.909179688 437.853515625 243.109375 c 0
 444.153320312 226.309570312 447.828125 213.709960938 448.877929688 205.310546875 c 0
 449.927734375 196.911132812 450.453125 187.986328125 450.453125 178.536132812 c 0
 450.453125 154.38671875 447.302734375 133.38671875 441.002929688 115.536132812 c 0
 415.802734375 38.88671875 349.127929688 0.5615234375 240.977539062 0.5615234375 c 0
 200.02734375 0.5615234375 164.327148438 7.9111328125 133.876953125 22.611328125 c 0
 103.426757812 37.3115234375 80.5888671875 55.94921875 65.36328125 78.5244140625 c 0
 50.138671875 101.099609375 39.11328125 123.149414062 32.2880859375 144.673828125 c 0
 25.462890625 166.19921875 22.05078125 186.412109375 22.05078125 205.311523438 c 1
 124.42578125 205.311523438 l 1
 131.776367188 140.2109375 170.625976562 107.661132812 240.975585938 107.661132812 c 2
 248.850585938 107.661132812 l 2
 301.544921875 108.244140625 334.094726562 127.14453125 346.5 164.362304688 c 0
 347.549804688 167.512695312 348.075195312 169.875 348.075195312 171.450195312 c 2
 348.075195312 176.962890625 l 2
 348.075195312 220.012695312 309.75 246.262695312 233.099609375 255.712890625 c 0
 192.149414062 260.962890625 158.287109375 270.150390625 131.512695312 283.275390625 c 0
 104.737304688 296.400390625 86.099609375 312.150390625 75.599609375 330.525390625 c 0
 65.099609375 348.900390625 58.2744140625 364.650390625 55.125 377.775390625 c 0
 51.9755859375 390.900390625 50.400390625 405.337890625 50.400390625 421.087890625 c 0
 50.400390625 434.737304688 53.025390625 450.224609375 58.275390625 467.549804688 c 0
 63.525390625 484.875 72.4501953125 503.25 85.0498046875 522.674804688 c 0
 97.650390625 542.099609375 117.600585938 558.375 144.900390625 571.5 c 0
 172.200195312 584.625 204.224609375 591.1875 240.974609375 591.1875 c 0
EndSplineSet
EndChar

StartChar: t
Encoding: 116 116 117
Width: 432
Flags: W
LayerCount: 2
Fore
SplineSet
85.5 207 m 2
 85.5 778.5 l 1
 191.25 778.5 l 1
 191.25 175.5 l 2
 191.25 168 195.375 156.75 203.625 141.75 c 0
 211.875 126.75 223.5 116.25 238.5 110.25 c 0
 247.30859375 106.7265625 260.05859375 105.2265625 276.75 105.75 c 0
 293.25 105.75 307.5 113.25 319.5 128.25 c 1
 420.75 92.25 l 1
 411.75 69.75 393.375 49.125 365.625 30.375 c 0
 337.875 11.625 303.75 2.25 263.25 2.25 c 0
 248.25 2.25 233.25 3.75 218.25 6.75 c 0
 170.25 15.75 136.125 40.5 115.875 81 c 0
 95.625 121.5 85.5 163.5 85.5 207 c 2
191.25 477 m 1
 191.25 582.75 l 1
 420.75 582.75 l 1
 389.25 477 l 1
 191.25 477 l 1
29.25 477 m 1
 58.5 582.75 l 1
 85.5 582.75 l 1
 85.5 477 l 1
 29.25 477 l 1
EndSplineSet
EndChar

StartChar: u
Encoding: 117 117 118
Width: 535
Flags: W
LayerCount: 2
Fore
SplineSet
31.3203125 238.462890625 m 2
 31.3193359375 596.30078125 l 1
 143.14453125 596.30078125 l 1
 143.14453125 238.4609375 l 2
 143.14453125 153.260742188 184.146484375 110.661132812 266.151367188 110.661132812 c 0
 292.776367188 110.661132812 315.407226562 115.454101562 334.044921875 125.040039062 c 0
 352.682617188 134.625 365.729492188 147.138671875 373.185546875 162.581054688 c 0
 380.639648438 178.0234375 385.431640625 191.6015625 387.561523438 203.315429688 c 0
 389.69140625 215.03125 390.756835938 226.74609375 390.756835938 238.4609375 c 2
 390.756835938 596.30078125 l 1
 502.58203125 596.30078125 l 1
 504.178710938 299.166992188 l 2
 503.114257812 287.451171875 502.2109375 273.807617188 501.469726562 258.236328125 c 0
 500.081054688 204.583007812 492.864257812 162.712890625 479.818359375 132.625976562 c 0
 467.303710938 105.203125 453.05859375 82.4384765625 437.083007812 64.3330078125 c 0
 425.369140625 51.5537109375 402.206054688 36.6435546875 367.59375 19.603515625 c 0
 341.501953125 6.8232421875 307.2890625 0.8330078125 264.955078125 1.6328125 c 0
 225.282226562 1.8974609375 190.00390625 8.953125 159.119140625 22.798828125 c 0
 128.234375 36.6435546875 105.071289062 53.1513671875 89.62890625 72.322265625 c 0
 74.1865234375 91.4921875 61.6728515625 113.05859375 52.087890625 137.020507812 c 0
 42.501953125 160.984375 36.64453125 180.6875 34.5146484375 196.129882812 c 0
 32.384765625 211.572265625 31.3203125 225.68359375 31.3203125 238.462890625 c 2
EndSplineSet
EndChar

StartChar: v
Encoding: 118 118 119
Width: 523
Flags: W
LayerCount: 2
Fore
SplineSet
96.75 582.75 m 1
 265.5 128.25 l 1
 434.25 582.75 l 1
 542.25 582.75 l 1
 328.5 0 l 1
 202.5 0 l 1
 -13.5 582.75 l 1
 96.75 582.75 l 1
EndSplineSet
EndChar

StartChar: w
Encoding: 119 119 120
Width: 771
Flags: W
LayerCount: 2
Fore
SplineSet
146.25 585 m 1
 146.25 204.75 l 1
 146.25 193.5 l 2
 146.25 189 148.125 181.125 151.875 169.875 c 0
 155.625 158.625 160.125 148.875 165.375 140.625 c 0
 170.625 132.375 179.625 124.5 192.375 117 c 0
 205.125 109.5 220.5 105.75 238.5 105.75 c 0
 267 105.75 289.5 114 306 130.5 c 0
 322.651367188 148.665039062 331.651367188 165.165039062 333 180 c 2
 335.25 204.75 l 1
 335.25 585 l 1
 441 585 l 1
 441 204.75 l 1
 441 193.5 l 2
 441 189 442.5 181.125 445.5 169.875 c 0
 448.5 158.625 453 148.875 459 140.625 c 0
 465 132.375 475.125 124.5 489.375 117 c 0
 503.625 109.5 519.75 105.75 537.75 105.75 c 0
 566.25 107.25 587.625 116.25 601.875 132.75 c 0
 617.928710938 151.098632812 626.553710938 166.848632812 627.75 180 c 2
 630 204.75 l 1
 630 585 l 1
 733.5 585 l 1
 733.5 204.75 l 1
 733.5 195.75 l 2
 733.5 134.25 714.375 86.25 676.125 51.75 c 0
 637.875 17.25 591.75 0 537.75 0 c 0
 504.75 0 475.875 6 451.125 18 c 0
 426.375 30 409.5 41.25 400.5 51.75 c 2
 387 67.5 l 1
 380.25 59.625 l 2
 372.75 52.875 365.625 46.875 358.875 41.625 c 0
 352.125 36.375 343.5 30.75 333 24.75 c 0
 322.5 18.75 309 13.125 292.5 7.875 c 0
 276 2.625 258 0 238.5 0 c 0
 184.5 0 137.625 18 97.875 54 c 0
 58.125 90 38.25 140.25 38.25 204.75 c 2
 38.25 585 l 1
 146.25 585 l 1
EndSplineSet
Validated: 1
EndChar

StartChar: x
Encoding: 120 120 121
Width: 483
Flags: W
LayerCount: 2
Fore
SplineSet
180 288 m 1
 9 580.5 l 1
 130.5 580.5 l 1
 240.75 393.75 l 1
 353.25 580.5 l 1
 474.75 580.5 l 1
 301.5 288 l 1
 472.5 0 l 1
 348.75 0 l 1
 240.75 182.25 l 1
 132.75 0 l 1
 9 0 l 1
 180 288 l 1
EndSplineSet
Validated: 1
EndChar

StartChar: y
Encoding: 121 121 122
Width: 640
Flags: W
HStem: -276.75 107.959<207.501 400.925> 0 105.75<219.115 396.712> 560.5 20G<11.1777 123.678 492.678 605.178>
VStem: 11.1777 112.5<202.05 578.25> 492.678 112.5<-71.8097 65.25 203.838 580.5>
LayerCount: 2
Fore
SplineSet
492.677734375 580.5 m 1
 605.177734375 580.5 l 1
 605.177734375 67.5 l 1
 605.177734375 60.75 l 2
 605.177734375 35.25 602.552734375 8.625 597.302734375 -19.125 c 0
 592.052734375 -46.875 582.677734375 -76.5 569.177734375 -108 c 0
 555.677734375 -139.5 538.802734375 -167.25 518.552734375 -191.25 c 0
 498.302734375 -215.25 470.177734375 -235.5 434.177734375 -252 c 0
 398.177734375 -268.5 357.677734375 -276.75 312.677734375 -276.75 c 0
 228.677734375 -276.75 163.427734375 -257.25 116.927734375 -218.25 c 0
 70.427734375 -179.25 39.677734375 -132 24.677734375 -76.5 c 1
 128.177734375 -49.5 l 1
 154.686825284 -129.027272727 214.452775697 -168.790909091 307.475585615 -168.790909091 c 0
 309.198230243 -168.790909091 310.93227983 -168.777272727 312.677734375 -168.75 c 0
 360.677734375 -168.75 399.302734375 -154.5 428.552734375 -126 c 0
 457.802734375 -97.5 476.927734375 -67.125 485.927734375 -34.875 c 0
 494.927734375 -2.625 499.427734375 29.25 499.427734375 60.75 c 2
 499.427734375 65.25 l 2
 499.427734375 66.75 498.677734375 66.75 497.177734375 65.25 c 2
 492.677734375 60.75 l 2
 452.177734375 20.25 392.177734375 0 312.677734375 0 c 0
 240.677734375 0 172.427734375 26.25 107.927734375 78.75 c 0
 43.427734375 131.25 11.177734375 204 11.177734375 297 c 2
 11.177734375 580.5 l 1
 123.677734375 578.25 l 1
 123.677734375 294.75 l 2
 123.677734375 240.75 141.302734375 195.75 176.552734375 159.75 c 0
 211.802734375 123.75 255.677734375 105.75 308.177734375 105.75 c 0
 360.677734375 105.75 404.552734375 124.125 439.802734375 160.875 c 0
 475.052734375 197.625 492.677734375 243 492.677734375 297 c 2
 492.677734375 580.5 l 1
EndSplineSet
Validated: 1
EndChar

StartChar: z
Encoding: 122 122 123
Width: 526
Flags: MW
HStem: 0 108<213.75 492.75 213.75 492.75> 472.5 105.75<33.75 312.75 33.75 492.75>
VStem: 33.75 461.25
LayerCount: 2
Fore
SplineSet
33.75 578.25 m 1
 492.75 578.25 l 1
 213.75 108 l 1
 492.75 108 l 1
 492.75 0 l 1
 33.75 0 l 1
 312.75 472.5 l 1
 33.75 472.5 l 1
 33.75 578.25 l 1
EndSplineSet
Validated: 1
EndChar

